G04 #@! TF.GenerationSoftware,KiCad,Pcbnew,6.0.9-8da3e8f707~116~ubuntu20.04.1*
G04 #@! TF.CreationDate,2023-03-26T15:22:19+00:00*
G04 #@! TF.ProjectId,LEC000043,4c454330-3030-4303-9433-2e6b69636164,rev?*
G04 #@! TF.SameCoordinates,Original*
G04 #@! TF.FileFunction,Paste,Top*
G04 #@! TF.FilePolarity,Positive*
%FSLAX46Y46*%
G04 Gerber Fmt 4.6, Leading zero omitted, Abs format (unit mm)*
G04 Created by KiCad (PCBNEW 6.0.9-8da3e8f707~116~ubuntu20.04.1) date 2023-03-26 15:22:19*
%MOMM*%
%LPD*%
G01*
G04 APERTURE LIST*
G04 Aperture macros list*
%AMRoundRect*
0 Rectangle with rounded corners*
0 $1 Rounding radius*
0 $2 $3 $4 $5 $6 $7 $8 $9 X,Y pos of 4 corners*
0 Add a 4 corners polygon primitive as box body*
4,1,4,$2,$3,$4,$5,$6,$7,$8,$9,$2,$3,0*
0 Add four circle primitives for the rounded corners*
1,1,$1+$1,$2,$3*
1,1,$1+$1,$4,$5*
1,1,$1+$1,$6,$7*
1,1,$1+$1,$8,$9*
0 Add four rect primitives between the rounded corners*
20,1,$1+$1,$2,$3,$4,$5,0*
20,1,$1+$1,$4,$5,$6,$7,0*
20,1,$1+$1,$6,$7,$8,$9,0*
20,1,$1+$1,$8,$9,$2,$3,0*%
G04 Aperture macros list end*
%ADD10RoundRect,0.218750X0.218750X0.256250X-0.218750X0.256250X-0.218750X-0.256250X0.218750X-0.256250X0*%
%ADD11RoundRect,0.249600X-0.550400X1.500400X-0.550400X-1.500400X0.550400X-1.500400X0.550400X1.500400X0*%
%ADD12R,0.450000X0.600000*%
%ADD13R,3.300000X2.500000*%
%ADD14R,1.800000X2.500000*%
%ADD15RoundRect,0.218750X0.256250X-0.218750X0.256250X0.218750X-0.256250X0.218750X-0.256250X-0.218750X0*%
%ADD16RoundRect,0.218750X-0.218750X-0.256250X0.218750X-0.256250X0.218750X0.256250X-0.218750X0.256250X0*%
%ADD17R,1.500000X1.780000*%
%ADD18RoundRect,0.162500X0.825000X0.162500X-0.825000X0.162500X-0.825000X-0.162500X0.825000X-0.162500X0*%
%ADD19RoundRect,0.249999X-0.425001X0.450001X-0.425001X-0.450001X0.425001X-0.450001X0.425001X0.450001X0*%
%ADD20RoundRect,0.218750X-0.256250X0.218750X-0.256250X-0.218750X0.256250X-0.218750X0.256250X0.218750X0*%
%ADD21RoundRect,0.150000X-0.825000X-0.150000X0.825000X-0.150000X0.825000X0.150000X-0.825000X0.150000X0*%
%ADD22R,2.900000X5.400000*%
%ADD23R,1.000000X0.800000*%
%ADD24RoundRect,0.249600X0.550400X-1.500400X0.550400X1.500400X-0.550400X1.500400X-0.550400X-1.500400X0*%
%ADD25R,0.800000X0.900000*%
%ADD26RoundRect,0.225000X-0.250000X0.225000X-0.250000X-0.225000X0.250000X-0.225000X0.250000X0.225000X0*%
G04 APERTURE END LIST*
D10*
G04 #@! TO.C,C2*
X28787500Y14300000D03*
X27212500Y14300000D03*
G04 #@! TD*
D11*
G04 #@! TO.C,C3*
X52000000Y9700000D03*
X52000000Y5300000D03*
G04 #@! TD*
D10*
G04 #@! TO.C,C4*
X36175000Y17000000D03*
X34600000Y17000000D03*
G04 #@! TD*
D12*
G04 #@! TO.C,D2*
X37900000Y27750000D03*
X37900000Y29850000D03*
G04 #@! TD*
D13*
G04 #@! TO.C,D3*
X18400000Y27100000D03*
X18400000Y20300000D03*
G04 #@! TD*
G04 #@! TO.C,D4*
X18400000Y17200000D03*
X18400000Y10400000D03*
G04 #@! TD*
G04 #@! TO.C,D5*
X11500000Y20300000D03*
X11500000Y27100000D03*
G04 #@! TD*
D14*
G04 #@! TO.C,D6*
X33000000Y10000000D03*
X33000000Y6000000D03*
G04 #@! TD*
D15*
G04 #@! TO.C,D7*
X54600000Y15812500D03*
X54600000Y17387500D03*
G04 #@! TD*
D13*
G04 #@! TO.C,D8*
X11500000Y10400000D03*
X11500000Y17200000D03*
G04 #@! TD*
D10*
G04 #@! TO.C,R2*
X36175000Y18500000D03*
X34600000Y18500000D03*
G04 #@! TD*
D15*
G04 #@! TO.C,R3*
X33000000Y18700000D03*
X33000000Y20275000D03*
G04 #@! TD*
D16*
G04 #@! TO.C,R5*
X38012500Y18250000D03*
X39587500Y18250000D03*
G04 #@! TD*
D10*
G04 #@! TO.C,R6*
X50787500Y24250000D03*
X49212500Y24250000D03*
G04 #@! TD*
G04 #@! TO.C,R7*
X56687500Y12000000D03*
X55112500Y12000000D03*
G04 #@! TD*
D17*
G04 #@! TO.C,U2*
X24485000Y25570000D03*
X24485000Y23030000D03*
X34015000Y23030000D03*
X34015000Y25570000D03*
G04 #@! TD*
D18*
G04 #@! TO.C,U3*
X30537500Y16195000D03*
X30537500Y17465000D03*
X30537500Y18735000D03*
X30537500Y20005000D03*
X25462500Y20005000D03*
X25462500Y18735000D03*
X25462500Y17465000D03*
X25462500Y16195000D03*
G04 #@! TD*
D16*
G04 #@! TO.C,R1*
X22812500Y28000000D03*
X24387500Y28000000D03*
G04 #@! TD*
G04 #@! TO.C,C6*
X48712500Y13500000D03*
X50287500Y13500000D03*
G04 #@! TD*
D19*
G04 #@! TO.C,C7*
X50500000Y18000000D03*
X50500000Y15300000D03*
G04 #@! TD*
G04 #@! TO.C,C8*
X52750000Y21600000D03*
X52750000Y18900000D03*
G04 #@! TD*
D20*
G04 #@! TO.C,R4*
X50500000Y21500000D03*
X50500000Y19925000D03*
G04 #@! TD*
D21*
G04 #@! TO.C,U1*
X43275000Y20655000D03*
X43275000Y19385000D03*
X43275000Y18115000D03*
X43275000Y16845000D03*
X48225000Y16845000D03*
X48225000Y18115000D03*
X48225000Y19385000D03*
X48225000Y20655000D03*
G04 #@! TD*
D10*
G04 #@! TO.C,C5*
X48325000Y22250000D03*
X46750000Y22250000D03*
G04 #@! TD*
D22*
G04 #@! TO.C,L1*
X46450000Y9500000D03*
X36550000Y9500000D03*
G04 #@! TD*
D12*
G04 #@! TO.C,D9*
X35500000Y27750000D03*
X35500000Y29850000D03*
G04 #@! TD*
D23*
G04 #@! TO.C,D1*
X18075000Y4630000D03*
X18075000Y7170000D03*
X11925000Y7170000D03*
X11925000Y4630000D03*
G04 #@! TD*
D24*
G04 #@! TO.C,C1*
X27600000Y6100000D03*
X27600000Y10500000D03*
G04 #@! TD*
D25*
G04 #@! TO.C,Q1*
X54800000Y19750000D03*
X56700000Y19750000D03*
X55750000Y21750000D03*
G04 #@! TD*
D12*
G04 #@! TO.C,D10*
X56500000Y17650000D03*
X56500000Y15550000D03*
G04 #@! TD*
D26*
G04 #@! TO.C,C9*
X41200000Y18475000D03*
X41200000Y16925000D03*
G04 #@! TD*
M02*
