G04 #@! TF.GenerationSoftware,KiCad,Pcbnew,6.0.9-8da3e8f707~116~ubuntu20.04.1*
G04 #@! TF.CreationDate,2023-03-26T15:22:19+00:00*
G04 #@! TF.ProjectId,LEC000043,4c454330-3030-4303-9433-2e6b69636164,rev?*
G04 #@! TF.SameCoordinates,Original*
G04 #@! TF.FileFunction,Legend,Top*
G04 #@! TF.FilePolarity,Positive*
%FSLAX46Y46*%
G04 Gerber Fmt 4.6, Leading zero omitted, Abs format (unit mm)*
G04 Created by KiCad (PCBNEW 6.0.9-8da3e8f707~116~ubuntu20.04.1) date 2023-03-26 15:22:19*
%MOMM*%
%LPD*%
G01*
G04 APERTURE LIST*
%ADD10C,0.120000*%
%ADD11C,0.150000*%
%ADD12C,0.010000*%
%ADD13C,0.200000*%
G04 APERTURE END LIST*
D10*
X26741924Y30900000D02*
X8141924Y30900000D01*
X8100000Y30900000D02*
X8100000Y28900000D01*
X8141924Y28900000D02*
X26741924Y28900000D01*
X26741924Y28900000D02*
X26741924Y30900000D01*
D11*
G04 #@! TO.C,C2*
X25666666Y13814286D02*
X25628571Y13776191D01*
X25514285Y13738096D01*
X25438095Y13738096D01*
X25323809Y13776191D01*
X25247619Y13852381D01*
X25209523Y13928572D01*
X25171428Y14080953D01*
X25171428Y14195239D01*
X25209523Y14347620D01*
X25247619Y14423810D01*
X25323809Y14500000D01*
X25438095Y14538096D01*
X25514285Y14538096D01*
X25628571Y14500000D01*
X25666666Y14461905D01*
X25971428Y14461905D02*
X26009523Y14500000D01*
X26085714Y14538096D01*
X26276190Y14538096D01*
X26352380Y14500000D01*
X26390476Y14461905D01*
X26428571Y14385715D01*
X26428571Y14309524D01*
X26390476Y14195239D01*
X25933333Y13738096D01*
X26428571Y13738096D01*
G04 #@! TO.C,C3*
X53866666Y2964286D02*
X53828571Y2926191D01*
X53714285Y2888096D01*
X53638095Y2888096D01*
X53523809Y2926191D01*
X53447619Y3002381D01*
X53409523Y3078572D01*
X53371428Y3230953D01*
X53371428Y3345239D01*
X53409523Y3497620D01*
X53447619Y3573810D01*
X53523809Y3650000D01*
X53638095Y3688096D01*
X53714285Y3688096D01*
X53828571Y3650000D01*
X53866666Y3611905D01*
X54133333Y3688096D02*
X54628571Y3688096D01*
X54361904Y3383334D01*
X54476190Y3383334D01*
X54552380Y3345239D01*
X54590476Y3307143D01*
X54628571Y3230953D01*
X54628571Y3040477D01*
X54590476Y2964286D01*
X54552380Y2926191D01*
X54476190Y2888096D01*
X54247619Y2888096D01*
X54171428Y2926191D01*
X54133333Y2964286D01*
G04 #@! TO.C,C4*
X33616666Y15464286D02*
X33578571Y15426191D01*
X33464285Y15388096D01*
X33388095Y15388096D01*
X33273809Y15426191D01*
X33197619Y15502381D01*
X33159523Y15578572D01*
X33121428Y15730953D01*
X33121428Y15845239D01*
X33159523Y15997620D01*
X33197619Y16073810D01*
X33273809Y16150000D01*
X33388095Y16188096D01*
X33464285Y16188096D01*
X33578571Y16150000D01*
X33616666Y16111905D01*
X34302380Y15921429D02*
X34302380Y15388096D01*
X34111904Y16226191D02*
X33921428Y15654762D01*
X34416666Y15654762D01*
G04 #@! TO.C,D2*
X39961904Y28209524D02*
X39161904Y28209524D01*
X39161904Y28400000D01*
X39200000Y28514286D01*
X39276190Y28590477D01*
X39352380Y28628572D01*
X39504761Y28666667D01*
X39619047Y28666667D01*
X39771428Y28628572D01*
X39847619Y28590477D01*
X39923809Y28514286D01*
X39961904Y28400000D01*
X39961904Y28209524D01*
X39238095Y28971429D02*
X39200000Y29009524D01*
X39161904Y29085715D01*
X39161904Y29276191D01*
X39200000Y29352381D01*
X39238095Y29390477D01*
X39314285Y29428572D01*
X39390476Y29428572D01*
X39504761Y29390477D01*
X39961904Y28933334D01*
X39961904Y29428572D01*
G04 #@! TO.C,D3*
X22861904Y23109524D02*
X22061904Y23109524D01*
X22061904Y23300000D01*
X22100000Y23414286D01*
X22176190Y23490477D01*
X22252380Y23528572D01*
X22404761Y23566667D01*
X22519047Y23566667D01*
X22671428Y23528572D01*
X22747619Y23490477D01*
X22823809Y23414286D01*
X22861904Y23300000D01*
X22861904Y23109524D01*
X22061904Y23833334D02*
X22061904Y24328572D01*
X22366666Y24061905D01*
X22366666Y24176191D01*
X22404761Y24252381D01*
X22442857Y24290477D01*
X22519047Y24328572D01*
X22709523Y24328572D01*
X22785714Y24290477D01*
X22823809Y24252381D01*
X22861904Y24176191D01*
X22861904Y23947620D01*
X22823809Y23871429D01*
X22785714Y23833334D01*
G04 #@! TO.C,D4*
X23061904Y13199524D02*
X22261904Y13199524D01*
X22261904Y13390000D01*
X22300000Y13504286D01*
X22376190Y13580477D01*
X22452380Y13618572D01*
X22604761Y13656667D01*
X22719047Y13656667D01*
X22871428Y13618572D01*
X22947619Y13580477D01*
X23023809Y13504286D01*
X23061904Y13390000D01*
X23061904Y13199524D01*
X22528571Y14342381D02*
X23061904Y14342381D01*
X22223809Y14151905D02*
X22795238Y13961429D01*
X22795238Y14456667D01*
G04 #@! TO.C,D5*
X7761904Y18609524D02*
X6961904Y18609524D01*
X6961904Y18800000D01*
X7000000Y18914286D01*
X7076190Y18990477D01*
X7152380Y19028572D01*
X7304761Y19066667D01*
X7419047Y19066667D01*
X7571428Y19028572D01*
X7647619Y18990477D01*
X7723809Y18914286D01*
X7761904Y18800000D01*
X7761904Y18609524D01*
X6961904Y19790477D02*
X6961904Y19409524D01*
X7342857Y19371429D01*
X7304761Y19409524D01*
X7266666Y19485715D01*
X7266666Y19676191D01*
X7304761Y19752381D01*
X7342857Y19790477D01*
X7419047Y19828572D01*
X7609523Y19828572D01*
X7685714Y19790477D01*
X7723809Y19752381D01*
X7761904Y19676191D01*
X7761904Y19485715D01*
X7723809Y19409524D01*
X7685714Y19371429D01*
G04 #@! TO.C,D6*
X33361904Y2909524D02*
X32561904Y2909524D01*
X32561904Y3100000D01*
X32600000Y3214286D01*
X32676190Y3290477D01*
X32752380Y3328572D01*
X32904761Y3366667D01*
X33019047Y3366667D01*
X33171428Y3328572D01*
X33247619Y3290477D01*
X33323809Y3214286D01*
X33361904Y3100000D01*
X33361904Y2909524D01*
X32561904Y4052381D02*
X32561904Y3900000D01*
X32600000Y3823810D01*
X32638095Y3785715D01*
X32752380Y3709524D01*
X32904761Y3671429D01*
X33209523Y3671429D01*
X33285714Y3709524D01*
X33323809Y3747620D01*
X33361904Y3823810D01*
X33361904Y3976191D01*
X33323809Y4052381D01*
X33285714Y4090477D01*
X33209523Y4128572D01*
X33019047Y4128572D01*
X32942857Y4090477D01*
X32904761Y4052381D01*
X32866666Y3976191D01*
X32866666Y3823810D01*
X32904761Y3747620D01*
X32942857Y3709524D01*
X33019047Y3671429D01*
G04 #@! TO.C,D7*
X54961904Y13609524D02*
X54161904Y13609524D01*
X54161904Y13800000D01*
X54200000Y13914286D01*
X54276190Y13990477D01*
X54352380Y14028572D01*
X54504761Y14066667D01*
X54619047Y14066667D01*
X54771428Y14028572D01*
X54847619Y13990477D01*
X54923809Y13914286D01*
X54961904Y13800000D01*
X54961904Y13609524D01*
X54161904Y14333334D02*
X54161904Y14866667D01*
X54961904Y14523810D01*
G04 #@! TO.C,D8*
X7761904Y15109524D02*
X6961904Y15109524D01*
X6961904Y15300000D01*
X7000000Y15414286D01*
X7076190Y15490477D01*
X7152380Y15528572D01*
X7304761Y15566667D01*
X7419047Y15566667D01*
X7571428Y15528572D01*
X7647619Y15490477D01*
X7723809Y15414286D01*
X7761904Y15300000D01*
X7761904Y15109524D01*
X7304761Y16023810D02*
X7266666Y15947620D01*
X7228571Y15909524D01*
X7152380Y15871429D01*
X7114285Y15871429D01*
X7038095Y15909524D01*
X7000000Y15947620D01*
X6961904Y16023810D01*
X6961904Y16176191D01*
X7000000Y16252381D01*
X7038095Y16290477D01*
X7114285Y16328572D01*
X7152380Y16328572D01*
X7228571Y16290477D01*
X7266666Y16252381D01*
X7304761Y16176191D01*
X7304761Y16023810D01*
X7342857Y15947620D01*
X7380952Y15909524D01*
X7457142Y15871429D01*
X7609523Y15871429D01*
X7685714Y15909524D01*
X7723809Y15947620D01*
X7761904Y16023810D01*
X7761904Y16176191D01*
X7723809Y16252381D01*
X7685714Y16290477D01*
X7609523Y16328572D01*
X7457142Y16328572D01*
X7380952Y16290477D01*
X7342857Y16252381D01*
X7304761Y16176191D01*
G04 #@! TO.C,J1*
X54053333Y27538096D02*
X54053333Y26966667D01*
X54015238Y26852381D01*
X53939047Y26776191D01*
X53824761Y26738096D01*
X53748571Y26738096D01*
X54853333Y26738096D02*
X54396190Y26738096D01*
X54624761Y26738096D02*
X54624761Y27538096D01*
X54548571Y27423810D01*
X54472380Y27347620D01*
X54396190Y27309524D01*
G04 #@! TO.C,J2*
X2911904Y22753334D02*
X3483333Y22753334D01*
X3597619Y22715239D01*
X3673809Y22639048D01*
X3711904Y22524762D01*
X3711904Y22448572D01*
X2988095Y23096191D02*
X2950000Y23134286D01*
X2911904Y23210477D01*
X2911904Y23400953D01*
X2950000Y23477143D01*
X2988095Y23515239D01*
X3064285Y23553334D01*
X3140476Y23553334D01*
X3254761Y23515239D01*
X3711904Y23058096D01*
X3711904Y23553334D01*
G04 #@! TO.C,J3*
X2911904Y5153334D02*
X3483333Y5153334D01*
X3597619Y5115239D01*
X3673809Y5039048D01*
X3711904Y4924762D01*
X3711904Y4848572D01*
X2911904Y5458096D02*
X2911904Y5953334D01*
X3216666Y5686667D01*
X3216666Y5800953D01*
X3254761Y5877143D01*
X3292857Y5915239D01*
X3369047Y5953334D01*
X3559523Y5953334D01*
X3635714Y5915239D01*
X3673809Y5877143D01*
X3711904Y5800953D01*
X3711904Y5572381D01*
X3673809Y5496191D01*
X3635714Y5458096D01*
G04 #@! TO.C,J5*
X70883333Y24938096D02*
X70883333Y24366667D01*
X70845238Y24252381D01*
X70769047Y24176191D01*
X70654761Y24138096D01*
X70578571Y24138096D01*
X71645238Y24938096D02*
X71264285Y24938096D01*
X71226190Y24557143D01*
X71264285Y24595239D01*
X71340476Y24633334D01*
X71530952Y24633334D01*
X71607142Y24595239D01*
X71645238Y24557143D01*
X71683333Y24480953D01*
X71683333Y24290477D01*
X71645238Y24214286D01*
X71607142Y24176191D01*
X71530952Y24138096D01*
X71340476Y24138096D01*
X71264285Y24176191D01*
X71226190Y24214286D01*
G04 #@! TO.C,J6*
X71233333Y9938096D02*
X71233333Y9366667D01*
X71195238Y9252381D01*
X71119047Y9176191D01*
X71004761Y9138096D01*
X70928571Y9138096D01*
X71957142Y9938096D02*
X71804761Y9938096D01*
X71728571Y9900000D01*
X71690476Y9861905D01*
X71614285Y9747620D01*
X71576190Y9595239D01*
X71576190Y9290477D01*
X71614285Y9214286D01*
X71652380Y9176191D01*
X71728571Y9138096D01*
X71880952Y9138096D01*
X71957142Y9176191D01*
X71995238Y9214286D01*
X72033333Y9290477D01*
X72033333Y9480953D01*
X71995238Y9557143D01*
X71957142Y9595239D01*
X71880952Y9633334D01*
X71728571Y9633334D01*
X71652380Y9595239D01*
X71614285Y9557143D01*
X71576190Y9480953D01*
G04 #@! TO.C,R2*
X34116666Y19338096D02*
X33850000Y19719048D01*
X33659523Y19338096D02*
X33659523Y20138096D01*
X33964285Y20138096D01*
X34040476Y20100000D01*
X34078571Y20061905D01*
X34116666Y19985715D01*
X34116666Y19871429D01*
X34078571Y19795239D01*
X34040476Y19757143D01*
X33964285Y19719048D01*
X33659523Y19719048D01*
X34421428Y20061905D02*
X34459523Y20100000D01*
X34535714Y20138096D01*
X34726190Y20138096D01*
X34802380Y20100000D01*
X34840476Y20061905D01*
X34878571Y19985715D01*
X34878571Y19909524D01*
X34840476Y19795239D01*
X34383333Y19338096D01*
X34878571Y19338096D01*
G04 #@! TO.C,R3*
X33361904Y17116667D02*
X32980952Y16850000D01*
X33361904Y16659524D02*
X32561904Y16659524D01*
X32561904Y16964286D01*
X32600000Y17040477D01*
X32638095Y17078572D01*
X32714285Y17116667D01*
X32828571Y17116667D01*
X32904761Y17078572D01*
X32942857Y17040477D01*
X32980952Y16964286D01*
X32980952Y16659524D01*
X32561904Y17383334D02*
X32561904Y17878572D01*
X32866666Y17611905D01*
X32866666Y17726191D01*
X32904761Y17802381D01*
X32942857Y17840477D01*
X33019047Y17878572D01*
X33209523Y17878572D01*
X33285714Y17840477D01*
X33323809Y17802381D01*
X33361904Y17726191D01*
X33361904Y17497620D01*
X33323809Y17421429D01*
X33285714Y17383334D01*
G04 #@! TO.C,R5*
X37866666Y16638096D02*
X37600000Y17019048D01*
X37409523Y16638096D02*
X37409523Y17438096D01*
X37714285Y17438096D01*
X37790476Y17400000D01*
X37828571Y17361905D01*
X37866666Y17285715D01*
X37866666Y17171429D01*
X37828571Y17095239D01*
X37790476Y17057143D01*
X37714285Y17019048D01*
X37409523Y17019048D01*
X38590476Y17438096D02*
X38209523Y17438096D01*
X38171428Y17057143D01*
X38209523Y17095239D01*
X38285714Y17133334D01*
X38476190Y17133334D01*
X38552380Y17095239D01*
X38590476Y17057143D01*
X38628571Y16980953D01*
X38628571Y16790477D01*
X38590476Y16714286D01*
X38552380Y16676191D01*
X38476190Y16638096D01*
X38285714Y16638096D01*
X38209523Y16676191D01*
X38171428Y16714286D01*
G04 #@! TO.C,R6*
X49866666Y25288096D02*
X49600000Y25669048D01*
X49409523Y25288096D02*
X49409523Y26088096D01*
X49714285Y26088096D01*
X49790476Y26050000D01*
X49828571Y26011905D01*
X49866666Y25935715D01*
X49866666Y25821429D01*
X49828571Y25745239D01*
X49790476Y25707143D01*
X49714285Y25669048D01*
X49409523Y25669048D01*
X50552380Y26088096D02*
X50400000Y26088096D01*
X50323809Y26050000D01*
X50285714Y26011905D01*
X50209523Y25897620D01*
X50171428Y25745239D01*
X50171428Y25440477D01*
X50209523Y25364286D01*
X50247619Y25326191D01*
X50323809Y25288096D01*
X50476190Y25288096D01*
X50552380Y25326191D01*
X50590476Y25364286D01*
X50628571Y25440477D01*
X50628571Y25630953D01*
X50590476Y25707143D01*
X50552380Y25745239D01*
X50476190Y25783334D01*
X50323809Y25783334D01*
X50247619Y25745239D01*
X50209523Y25707143D01*
X50171428Y25630953D01*
G04 #@! TO.C,R7*
X55916666Y10288096D02*
X55650000Y10669048D01*
X55459523Y10288096D02*
X55459523Y11088096D01*
X55764285Y11088096D01*
X55840476Y11050000D01*
X55878571Y11011905D01*
X55916666Y10935715D01*
X55916666Y10821429D01*
X55878571Y10745239D01*
X55840476Y10707143D01*
X55764285Y10669048D01*
X55459523Y10669048D01*
X56183333Y11088096D02*
X56716666Y11088096D01*
X56373809Y10288096D01*
G04 #@! TO.C,U2*
X28290476Y28138096D02*
X28290476Y27490477D01*
X28328571Y27414286D01*
X28366666Y27376191D01*
X28442857Y27338096D01*
X28595238Y27338096D01*
X28671428Y27376191D01*
X28709523Y27414286D01*
X28747619Y27490477D01*
X28747619Y28138096D01*
X29090476Y28061905D02*
X29128571Y28100000D01*
X29204761Y28138096D01*
X29395238Y28138096D01*
X29471428Y28100000D01*
X29509523Y28061905D01*
X29547619Y27985715D01*
X29547619Y27909524D01*
X29509523Y27795239D01*
X29052380Y27338096D01*
X29547619Y27338096D01*
G04 #@! TO.C,U3*
X30640476Y15188096D02*
X30640476Y14540477D01*
X30678571Y14464286D01*
X30716666Y14426191D01*
X30792857Y14388096D01*
X30945238Y14388096D01*
X31021428Y14426191D01*
X31059523Y14464286D01*
X31097619Y14540477D01*
X31097619Y15188096D01*
X31402380Y15188096D02*
X31897619Y15188096D01*
X31630952Y14883334D01*
X31745238Y14883334D01*
X31821428Y14845239D01*
X31859523Y14807143D01*
X31897619Y14730953D01*
X31897619Y14540477D01*
X31859523Y14464286D01*
X31821428Y14426191D01*
X31745238Y14388096D01*
X31516666Y14388096D01*
X31440476Y14426191D01*
X31402380Y14464286D01*
G04 #@! TO.C,K1*
X68109523Y16438096D02*
X68109523Y17238096D01*
X68566666Y16438096D02*
X68223809Y16895239D01*
X68566666Y17238096D02*
X68109523Y16780953D01*
X69328571Y16438096D02*
X68871428Y16438096D01*
X69100000Y16438096D02*
X69100000Y17238096D01*
X69023809Y17123810D01*
X68947619Y17047620D01*
X68871428Y17009524D01*
G04 #@! TO.C,R1*
X25766666Y27638096D02*
X25500000Y28019048D01*
X25309523Y27638096D02*
X25309523Y28438096D01*
X25614285Y28438096D01*
X25690476Y28400000D01*
X25728571Y28361905D01*
X25766666Y28285715D01*
X25766666Y28171429D01*
X25728571Y28095239D01*
X25690476Y28057143D01*
X25614285Y28019048D01*
X25309523Y28019048D01*
X26528571Y27638096D02*
X26071428Y27638096D01*
X26300000Y27638096D02*
X26300000Y28438096D01*
X26223809Y28323810D01*
X26147619Y28247620D01*
X26071428Y28209524D01*
G04 #@! TO.C,C6*
X48866666Y11964286D02*
X48828571Y11926191D01*
X48714285Y11888096D01*
X48638095Y11888096D01*
X48523809Y11926191D01*
X48447619Y12002381D01*
X48409523Y12078572D01*
X48371428Y12230953D01*
X48371428Y12345239D01*
X48409523Y12497620D01*
X48447619Y12573810D01*
X48523809Y12650000D01*
X48638095Y12688096D01*
X48714285Y12688096D01*
X48828571Y12650000D01*
X48866666Y12611905D01*
X49552380Y12688096D02*
X49400000Y12688096D01*
X49323809Y12650000D01*
X49285714Y12611905D01*
X49209523Y12497620D01*
X49171428Y12345239D01*
X49171428Y12040477D01*
X49209523Y11964286D01*
X49247619Y11926191D01*
X49323809Y11888096D01*
X49476190Y11888096D01*
X49552380Y11926191D01*
X49590476Y11964286D01*
X49628571Y12040477D01*
X49628571Y12230953D01*
X49590476Y12307143D01*
X49552380Y12345239D01*
X49476190Y12383334D01*
X49323809Y12383334D01*
X49247619Y12345239D01*
X49209523Y12307143D01*
X49171428Y12230953D01*
G04 #@! TO.C,C7*
X49285714Y15116667D02*
X49323809Y15078572D01*
X49361904Y14964286D01*
X49361904Y14888096D01*
X49323809Y14773810D01*
X49247619Y14697620D01*
X49171428Y14659524D01*
X49019047Y14621429D01*
X48904761Y14621429D01*
X48752380Y14659524D01*
X48676190Y14697620D01*
X48600000Y14773810D01*
X48561904Y14888096D01*
X48561904Y14964286D01*
X48600000Y15078572D01*
X48638095Y15116667D01*
X48561904Y15383334D02*
X48561904Y15916667D01*
X49361904Y15573810D01*
G04 #@! TO.C,C8*
X51535714Y22366667D02*
X51573809Y22328572D01*
X51611904Y22214286D01*
X51611904Y22138096D01*
X51573809Y22023810D01*
X51497619Y21947620D01*
X51421428Y21909524D01*
X51269047Y21871429D01*
X51154761Y21871429D01*
X51002380Y21909524D01*
X50926190Y21947620D01*
X50850000Y22023810D01*
X50811904Y22138096D01*
X50811904Y22214286D01*
X50850000Y22328572D01*
X50888095Y22366667D01*
X51154761Y22823810D02*
X51116666Y22747620D01*
X51078571Y22709524D01*
X51002380Y22671429D01*
X50964285Y22671429D01*
X50888095Y22709524D01*
X50850000Y22747620D01*
X50811904Y22823810D01*
X50811904Y22976191D01*
X50850000Y23052381D01*
X50888095Y23090477D01*
X50964285Y23128572D01*
X51002380Y23128572D01*
X51078571Y23090477D01*
X51116666Y23052381D01*
X51154761Y22976191D01*
X51154761Y22823810D01*
X51192857Y22747620D01*
X51230952Y22709524D01*
X51307142Y22671429D01*
X51459523Y22671429D01*
X51535714Y22709524D01*
X51573809Y22747620D01*
X51611904Y22823810D01*
X51611904Y22976191D01*
X51573809Y23052381D01*
X51535714Y23090477D01*
X51459523Y23128572D01*
X51307142Y23128572D01*
X51230952Y23090477D01*
X51192857Y23052381D01*
X51154761Y22976191D01*
G04 #@! TO.C,R4*
X49861904Y21616667D02*
X49480952Y21350000D01*
X49861904Y21159524D02*
X49061904Y21159524D01*
X49061904Y21464286D01*
X49100000Y21540477D01*
X49138095Y21578572D01*
X49214285Y21616667D01*
X49328571Y21616667D01*
X49404761Y21578572D01*
X49442857Y21540477D01*
X49480952Y21464286D01*
X49480952Y21159524D01*
X49328571Y22302381D02*
X49861904Y22302381D01*
X49023809Y22111905D02*
X49595238Y21921429D01*
X49595238Y22416667D01*
G04 #@! TO.C,U1*
X44390476Y22438096D02*
X44390476Y21790477D01*
X44428571Y21714286D01*
X44466666Y21676191D01*
X44542857Y21638096D01*
X44695238Y21638096D01*
X44771428Y21676191D01*
X44809523Y21714286D01*
X44847619Y21790477D01*
X44847619Y22438096D01*
X45647619Y21638096D02*
X45190476Y21638096D01*
X45419047Y21638096D02*
X45419047Y22438096D01*
X45342857Y22323810D01*
X45266666Y22247620D01*
X45190476Y22209524D01*
G04 #@! TO.C,C5*
X46616666Y23164286D02*
X46578571Y23126191D01*
X46464285Y23088096D01*
X46388095Y23088096D01*
X46273809Y23126191D01*
X46197619Y23202381D01*
X46159523Y23278572D01*
X46121428Y23430953D01*
X46121428Y23545239D01*
X46159523Y23697620D01*
X46197619Y23773810D01*
X46273809Y23850000D01*
X46388095Y23888096D01*
X46464285Y23888096D01*
X46578571Y23850000D01*
X46616666Y23811905D01*
X47340476Y23888096D02*
X46959523Y23888096D01*
X46921428Y23507143D01*
X46959523Y23545239D01*
X47035714Y23583334D01*
X47226190Y23583334D01*
X47302380Y23545239D01*
X47340476Y23507143D01*
X47378571Y23430953D01*
X47378571Y23240477D01*
X47340476Y23164286D01*
X47302380Y23126191D01*
X47226190Y23088096D01*
X47035714Y23088096D01*
X46959523Y23126191D01*
X46921428Y23164286D01*
G04 #@! TO.C,L1*
X34861904Y13366667D02*
X34861904Y12985715D01*
X34061904Y12985715D01*
X34861904Y14052381D02*
X34861904Y13595239D01*
X34861904Y13823810D02*
X34061904Y13823810D01*
X34176190Y13747620D01*
X34252380Y13671429D01*
X34290476Y13595239D01*
G04 #@! TO.C,D9*
X34011904Y28209524D02*
X33211904Y28209524D01*
X33211904Y28400000D01*
X33250000Y28514286D01*
X33326190Y28590477D01*
X33402380Y28628572D01*
X33554761Y28666667D01*
X33669047Y28666667D01*
X33821428Y28628572D01*
X33897619Y28590477D01*
X33973809Y28514286D01*
X34011904Y28400000D01*
X34011904Y28209524D01*
X34011904Y29047620D02*
X34011904Y29200000D01*
X33973809Y29276191D01*
X33935714Y29314286D01*
X33821428Y29390477D01*
X33669047Y29428572D01*
X33364285Y29428572D01*
X33288095Y29390477D01*
X33250000Y29352381D01*
X33211904Y29276191D01*
X33211904Y29123810D01*
X33250000Y29047620D01*
X33288095Y29009524D01*
X33364285Y28971429D01*
X33554761Y28971429D01*
X33630952Y29009524D01*
X33669047Y29047620D01*
X33707142Y29123810D01*
X33707142Y29276191D01*
X33669047Y29352381D01*
X33630952Y29390477D01*
X33554761Y29428572D01*
G04 #@! TO.C,D1*
X17509523Y2738096D02*
X17509523Y3538096D01*
X17700000Y3538096D01*
X17814285Y3500000D01*
X17890476Y3423810D01*
X17928571Y3347620D01*
X17966666Y3195239D01*
X17966666Y3080953D01*
X17928571Y2928572D01*
X17890476Y2852381D01*
X17814285Y2776191D01*
X17700000Y2738096D01*
X17509523Y2738096D01*
X18728571Y2738096D02*
X18271428Y2738096D01*
X18500000Y2738096D02*
X18500000Y3538096D01*
X18423809Y3423810D01*
X18347619Y3347620D01*
X18271428Y3309524D01*
G04 #@! TO.C,RV1*
X38861904Y22523810D02*
X38480952Y22257143D01*
X38861904Y22066667D02*
X38061904Y22066667D01*
X38061904Y22371429D01*
X38100000Y22447620D01*
X38138095Y22485715D01*
X38214285Y22523810D01*
X38328571Y22523810D01*
X38404761Y22485715D01*
X38442857Y22447620D01*
X38480952Y22371429D01*
X38480952Y22066667D01*
X38061904Y22752381D02*
X38861904Y23019048D01*
X38061904Y23285715D01*
X38861904Y23971429D02*
X38861904Y23514286D01*
X38861904Y23742858D02*
X38061904Y23742858D01*
X38176190Y23666667D01*
X38252380Y23590477D01*
X38290476Y23514286D01*
G04 #@! TO.C,C1*
X29366666Y3714286D02*
X29328571Y3676191D01*
X29214285Y3638096D01*
X29138095Y3638096D01*
X29023809Y3676191D01*
X28947619Y3752381D01*
X28909523Y3828572D01*
X28871428Y3980953D01*
X28871428Y4095239D01*
X28909523Y4247620D01*
X28947619Y4323810D01*
X29023809Y4400000D01*
X29138095Y4438096D01*
X29214285Y4438096D01*
X29328571Y4400000D01*
X29366666Y4361905D01*
X30128571Y3638096D02*
X29671428Y3638096D01*
X29900000Y3638096D02*
X29900000Y4438096D01*
X29823809Y4323810D01*
X29747619Y4247620D01*
X29671428Y4209524D01*
G04 #@! TO.C,Q1*
X57173809Y21561905D02*
X57097619Y21600000D01*
X57021428Y21676191D01*
X56907142Y21790477D01*
X56830952Y21828572D01*
X56754761Y21828572D01*
X56792857Y21638096D02*
X56716666Y21676191D01*
X56640476Y21752381D01*
X56602380Y21904762D01*
X56602380Y22171429D01*
X56640476Y22323810D01*
X56716666Y22400000D01*
X56792857Y22438096D01*
X56945238Y22438096D01*
X57021428Y22400000D01*
X57097619Y22323810D01*
X57135714Y22171429D01*
X57135714Y21904762D01*
X57097619Y21752381D01*
X57021428Y21676191D01*
X56945238Y21638096D01*
X56792857Y21638096D01*
X57897619Y21638096D02*
X57440476Y21638096D01*
X57669047Y21638096D02*
X57669047Y22438096D01*
X57592857Y22323810D01*
X57516666Y22247620D01*
X57440476Y22209524D01*
G04 #@! TO.C,D10*
X57061904Y12928572D02*
X56261904Y12928572D01*
X56261904Y13119048D01*
X56300000Y13233334D01*
X56376190Y13309524D01*
X56452380Y13347620D01*
X56604761Y13385715D01*
X56719047Y13385715D01*
X56871428Y13347620D01*
X56947619Y13309524D01*
X57023809Y13233334D01*
X57061904Y13119048D01*
X57061904Y12928572D01*
X57061904Y14147620D02*
X57061904Y13690477D01*
X57061904Y13919048D02*
X56261904Y13919048D01*
X56376190Y13842858D01*
X56452380Y13766667D01*
X56490476Y13690477D01*
X56261904Y14642858D02*
X56261904Y14719048D01*
X56300000Y14795239D01*
X56338095Y14833334D01*
X56414285Y14871429D01*
X56566666Y14909524D01*
X56757142Y14909524D01*
X56909523Y14871429D01*
X56985714Y14833334D01*
X57023809Y14795239D01*
X57061904Y14719048D01*
X57061904Y14642858D01*
X57023809Y14566667D01*
X56985714Y14528572D01*
X56909523Y14490477D01*
X56757142Y14452381D01*
X56566666Y14452381D01*
X56414285Y14490477D01*
X56338095Y14528572D01*
X56300000Y14566667D01*
X56261904Y14642858D01*
G04 #@! TO.C,C9*
X40185714Y16666667D02*
X40223809Y16628572D01*
X40261904Y16514286D01*
X40261904Y16438096D01*
X40223809Y16323810D01*
X40147619Y16247620D01*
X40071428Y16209524D01*
X39919047Y16171429D01*
X39804761Y16171429D01*
X39652380Y16209524D01*
X39576190Y16247620D01*
X39500000Y16323810D01*
X39461904Y16438096D01*
X39461904Y16514286D01*
X39500000Y16628572D01*
X39538095Y16666667D01*
X40261904Y17047620D02*
X40261904Y17200000D01*
X40223809Y17276191D01*
X40185714Y17314286D01*
X40071428Y17390477D01*
X39919047Y17428572D01*
X39614285Y17428572D01*
X39538095Y17390477D01*
X39500000Y17352381D01*
X39461904Y17276191D01*
X39461904Y17123810D01*
X39500000Y17047620D01*
X39538095Y17009524D01*
X39614285Y16971429D01*
X39804761Y16971429D01*
X39880952Y17009524D01*
X39919047Y17047620D01*
X39957142Y17123810D01*
X39957142Y17276191D01*
X39919047Y17352381D01*
X39880952Y17390477D01*
X39804761Y17428572D01*
D10*
G04 #@! TO.C,C2*
X28162779Y14810000D02*
X27837221Y14810000D01*
X28162779Y13790000D02*
X27837221Y13790000D01*
G04 #@! TO.C,C3*
X48590000Y4090000D02*
X50940000Y4090000D01*
X55410000Y4090000D02*
X53060000Y4090000D01*
X54241250Y11543750D02*
X53453750Y11543750D01*
X49654437Y10910000D02*
X50940000Y10910000D01*
X49654437Y10910000D02*
X48590000Y9845563D01*
X48590000Y9845563D02*
X48590000Y4090000D01*
X55410000Y9845563D02*
X55410000Y4090000D01*
X54345563Y10910000D02*
X53060000Y10910000D01*
X53847500Y11937500D02*
X53847500Y11150000D01*
X54345563Y10910000D02*
X55410000Y9845563D01*
G04 #@! TO.C,C4*
X35550279Y16490000D02*
X35224721Y16490000D01*
X35550279Y17510000D02*
X35224721Y17510000D01*
G04 #@! TO.C,D2*
X37050000Y27300000D02*
X38750000Y27300000D01*
X37050000Y27300000D02*
X37050000Y29850000D01*
X38750000Y27300000D02*
X38750000Y29850000D01*
G04 #@! TO.C,D3*
X15150000Y28500000D02*
X21650000Y28500000D01*
X21650000Y28500000D02*
X21650000Y20100000D01*
X15150000Y28500000D02*
X15150000Y20100000D01*
G04 #@! TO.C,D4*
X15150000Y18600000D02*
X21650000Y18600000D01*
X21650000Y18600000D02*
X21650000Y10200000D01*
X15150000Y18600000D02*
X15150000Y10200000D01*
G04 #@! TO.C,D5*
X8250000Y18900000D02*
X8250000Y27300000D01*
X14750000Y18900000D02*
X14750000Y27300000D01*
X14750000Y18900000D02*
X8250000Y18900000D01*
G04 #@! TO.C,D6*
X34650000Y11400000D02*
X34650000Y6000000D01*
X34650000Y11400000D02*
X31350000Y11400000D01*
X31350000Y11400000D02*
X31350000Y6000000D01*
G04 #@! TO.C,D7*
X53865000Y15115000D02*
X55335000Y15115000D01*
X55335000Y15115000D02*
X55335000Y17400000D01*
X53865000Y17400000D02*
X53865000Y15115000D01*
G04 #@! TO.C,D8*
X8250000Y9000000D02*
X8250000Y17400000D01*
X14750000Y9000000D02*
X14750000Y17400000D01*
X14750000Y9000000D02*
X8250000Y9000000D01*
G04 #@! TO.C,J1*
X61940000Y22790000D02*
X61940000Y30910000D01*
X51780000Y29640000D02*
X61940000Y29640000D01*
X51780000Y30910000D02*
X51780000Y22790000D01*
X61940000Y30910000D02*
X51780000Y30910000D01*
X51780000Y22790000D02*
X61940000Y22790000D01*
G04 #@! TO.C,J2*
X-460000Y30640000D02*
X-460000Y20480000D01*
X-460000Y20480000D02*
X7660000Y20480000D01*
X810000Y20480000D02*
X810000Y30640000D01*
X7660000Y30640000D02*
X-460000Y30640000D01*
X7660000Y20480000D02*
X7660000Y30640000D01*
G04 #@! TO.C,J3*
X-460000Y2880000D02*
X7650000Y2880000D01*
X7650000Y13060000D02*
X-460000Y13040000D01*
X7650000Y2880000D02*
X7650000Y13040000D01*
X810000Y2880000D02*
X810000Y13040000D01*
X-460000Y13040000D02*
X-460000Y2880000D01*
G04 #@! TO.C,J5*
X78740000Y23290000D02*
X63500000Y23290000D01*
X63500000Y30910000D02*
X63500000Y23290000D01*
X78740000Y29640000D02*
X63500000Y29640000D01*
X78740000Y30910000D02*
X78740000Y23290000D01*
X78740000Y30910000D02*
X63500000Y30910000D01*
G04 #@! TO.C,J6*
X78700000Y3090000D02*
X78700000Y10710000D01*
X63460000Y3090000D02*
X78700000Y3090000D01*
X63460000Y3090000D02*
X63460000Y10710000D01*
X63460000Y4360000D02*
X78700000Y4360000D01*
X63460000Y10710000D02*
X78700000Y10710000D01*
G04 #@! TO.C,R2*
X35550279Y17990000D02*
X35224721Y17990000D01*
X35550279Y19010000D02*
X35224721Y19010000D01*
G04 #@! TO.C,R3*
X33510000Y19324721D02*
X33510000Y19650279D01*
X32490000Y19324721D02*
X32490000Y19650279D01*
G04 #@! TO.C,R5*
X38637221Y17740000D02*
X38962779Y17740000D01*
X38637221Y18760000D02*
X38962779Y18760000D01*
G04 #@! TO.C,R6*
X50162779Y23740000D02*
X49837221Y23740000D01*
X50162779Y24760000D02*
X49837221Y24760000D01*
G04 #@! TO.C,R7*
X56062779Y11490000D02*
X55737221Y11490000D01*
X56062779Y12510000D02*
X55737221Y12510000D01*
G04 #@! TO.C,U2*
X32485000Y21700000D02*
X32485000Y26900000D01*
X26015000Y21700000D02*
X32485000Y21700000D01*
X28250000Y26900000D02*
X26015000Y26900000D01*
X26015000Y26900000D02*
X26015000Y21700000D01*
X32485000Y26900000D02*
X30250000Y26900000D01*
X28250000Y26900000D02*
G75*
G03*
X30250000Y26900000I1000000J0D01*
G01*
G04 #@! TO.C,U3*
X28000000Y20690000D02*
X26120000Y20690000D01*
X28000000Y15510000D02*
X31525000Y15510000D01*
X28000000Y15510000D02*
X26120000Y15510000D01*
X28000000Y20690000D02*
X29880000Y20690000D01*
G04 #@! TO.C,K1*
X78600000Y22200000D02*
X78600000Y11800000D01*
X57800000Y11600000D02*
X57800000Y13100000D01*
X59400000Y17300000D02*
X59400000Y18400000D01*
X58800000Y17300000D02*
X58800000Y16600000D01*
X59600000Y16600000D02*
X59200000Y17300000D01*
X60000000Y16600000D02*
X60000000Y17300000D01*
X58000000Y22200000D02*
X78600000Y22200000D01*
X60000000Y17300000D02*
X58800000Y17300000D01*
X78600000Y11800000D02*
X58000000Y11800000D01*
X59400000Y16600000D02*
X59400000Y15500000D01*
X59500000Y11600000D02*
X57800000Y11600000D01*
X58000000Y11800000D02*
X58000000Y22200000D01*
X58800000Y16600000D02*
X60000000Y16600000D01*
G04 #@! TO.C,R1*
X23437221Y28510000D02*
X23762779Y28510000D01*
X23437221Y27490000D02*
X23762779Y27490000D01*
G04 #@! TO.C,H1*
X6574903Y16700000D02*
G75*
G03*
X6574903Y16700000I-3224903J0D01*
G01*
G36*
X1750000Y16600000D02*
G01*
X1850000Y16200000D01*
X2050000Y15800000D01*
X2450000Y15400000D01*
X2850000Y15200000D01*
X3250000Y15100000D01*
X3350000Y15100000D01*
X3350000Y13475097D01*
X2850000Y13500000D01*
X1850000Y13800000D01*
X1050000Y14400000D01*
X550000Y15100000D01*
X250000Y15800000D01*
X150000Y16200000D01*
X150000Y16700000D01*
X1750000Y16700000D01*
X1750000Y16600000D01*
G37*
D12*
X1750000Y16600000D02*
X1850000Y16200000D01*
X2050000Y15800000D01*
X2450000Y15400000D01*
X2850000Y15200000D01*
X3250000Y15100000D01*
X3350000Y15100000D01*
X3350000Y13475097D01*
X2850000Y13500000D01*
X1850000Y13800000D01*
X1050000Y14400000D01*
X550000Y15100000D01*
X250000Y15800000D01*
X150000Y16200000D01*
X150000Y16700000D01*
X1750000Y16700000D01*
X1750000Y16600000D01*
G36*
X3850000Y19900000D02*
G01*
X4850000Y19600000D01*
X5650000Y19000000D01*
X6150000Y18300000D01*
X6450000Y17600000D01*
X6550000Y17200000D01*
X6550000Y16700000D01*
X4950000Y16700000D01*
X4950000Y16800000D01*
X4850000Y17200000D01*
X4650000Y17600000D01*
X4250000Y18000000D01*
X3850000Y18200000D01*
X3450000Y18300000D01*
X3350000Y18300000D01*
X3350000Y19924903D01*
X3850000Y19900000D01*
G37*
X3850000Y19900000D02*
X4850000Y19600000D01*
X5650000Y19000000D01*
X6150000Y18300000D01*
X6450000Y17600000D01*
X6550000Y17200000D01*
X6550000Y16700000D01*
X4950000Y16700000D01*
X4950000Y16800000D01*
X4850000Y17200000D01*
X4650000Y17600000D01*
X4250000Y18000000D01*
X3850000Y18200000D01*
X3450000Y18300000D01*
X3350000Y18300000D01*
X3350000Y19924903D01*
X3850000Y19900000D01*
D10*
G04 #@! TO.C,H2*
X62424903Y6900000D02*
G75*
G03*
X62424903Y6900000I-3224903J0D01*
G01*
G36*
X57600000Y6800000D02*
G01*
X57700000Y6400000D01*
X57900000Y6000000D01*
X58300000Y5600000D01*
X58700000Y5400000D01*
X59100000Y5300000D01*
X59200000Y5300000D01*
X59200000Y3675097D01*
X58700000Y3700000D01*
X57700000Y4000000D01*
X56900000Y4600000D01*
X56400000Y5300000D01*
X56100000Y6000000D01*
X56000000Y6400000D01*
X56000000Y6900000D01*
X57600000Y6900000D01*
X57600000Y6800000D01*
G37*
D12*
X57600000Y6800000D02*
X57700000Y6400000D01*
X57900000Y6000000D01*
X58300000Y5600000D01*
X58700000Y5400000D01*
X59100000Y5300000D01*
X59200000Y5300000D01*
X59200000Y3675097D01*
X58700000Y3700000D01*
X57700000Y4000000D01*
X56900000Y4600000D01*
X56400000Y5300000D01*
X56100000Y6000000D01*
X56000000Y6400000D01*
X56000000Y6900000D01*
X57600000Y6900000D01*
X57600000Y6800000D01*
G36*
X59700000Y10100000D02*
G01*
X60700000Y9800000D01*
X61500000Y9200000D01*
X62000000Y8500000D01*
X62300000Y7800000D01*
X62400000Y7400000D01*
X62400000Y6900000D01*
X60800000Y6900000D01*
X60800000Y7000000D01*
X60700000Y7400000D01*
X60500000Y7800000D01*
X60100000Y8200000D01*
X59700000Y8400000D01*
X59300000Y8500000D01*
X59200000Y8500000D01*
X59200000Y10124903D01*
X59700000Y10100000D01*
G37*
X59700000Y10100000D02*
X60700000Y9800000D01*
X61500000Y9200000D01*
X62000000Y8500000D01*
X62300000Y7800000D01*
X62400000Y7400000D01*
X62400000Y6900000D01*
X60800000Y6900000D01*
X60800000Y7000000D01*
X60700000Y7400000D01*
X60500000Y7800000D01*
X60100000Y8200000D01*
X59700000Y8400000D01*
X59300000Y8500000D01*
X59200000Y8500000D01*
X59200000Y10124903D01*
X59700000Y10100000D01*
D10*
G04 #@! TO.C,H3*
X49224903Y27500000D02*
G75*
G03*
X49224903Y27500000I-3224903J0D01*
G01*
G36*
X44400000Y27400000D02*
G01*
X44500000Y27000000D01*
X44700000Y26600000D01*
X45100000Y26200000D01*
X45500000Y26000000D01*
X45900000Y25900000D01*
X46000000Y25900000D01*
X46000000Y24275097D01*
X45500000Y24300000D01*
X44500000Y24600000D01*
X43700000Y25200000D01*
X43200000Y25900000D01*
X42900000Y26600000D01*
X42800000Y27000000D01*
X42800000Y27500000D01*
X44400000Y27500000D01*
X44400000Y27400000D01*
G37*
D12*
X44400000Y27400000D02*
X44500000Y27000000D01*
X44700000Y26600000D01*
X45100000Y26200000D01*
X45500000Y26000000D01*
X45900000Y25900000D01*
X46000000Y25900000D01*
X46000000Y24275097D01*
X45500000Y24300000D01*
X44500000Y24600000D01*
X43700000Y25200000D01*
X43200000Y25900000D01*
X42900000Y26600000D01*
X42800000Y27000000D01*
X42800000Y27500000D01*
X44400000Y27500000D01*
X44400000Y27400000D01*
G36*
X46500000Y30700000D02*
G01*
X47500000Y30400000D01*
X48300000Y29800000D01*
X48800000Y29100000D01*
X49100000Y28400000D01*
X49200000Y28000000D01*
X49200000Y27500000D01*
X47600000Y27500000D01*
X47600000Y27600000D01*
X47500000Y28000000D01*
X47300000Y28400000D01*
X46900000Y28800000D01*
X46500000Y29000000D01*
X46100000Y29100000D01*
X46000000Y29100000D01*
X46000000Y30724903D01*
X46500000Y30700000D01*
G37*
X46500000Y30700000D02*
X47500000Y30400000D01*
X48300000Y29800000D01*
X48800000Y29100000D01*
X49100000Y28400000D01*
X49200000Y28000000D01*
X49200000Y27500000D01*
X47600000Y27500000D01*
X47600000Y27600000D01*
X47500000Y28000000D01*
X47300000Y28400000D01*
X46900000Y28800000D01*
X46500000Y29000000D01*
X46100000Y29100000D01*
X46000000Y29100000D01*
X46000000Y30724903D01*
X46500000Y30700000D01*
D10*
G04 #@! TO.C,C6*
X49337221Y14010000D02*
X49662779Y14010000D01*
X49337221Y12990000D02*
X49662779Y12990000D01*
G04 #@! TO.C,C7*
X51435000Y15050000D02*
X51435000Y18960000D01*
X51435000Y18960000D02*
X49565000Y18960000D01*
X49565000Y18960000D02*
X49565000Y15050000D01*
G04 #@! TO.C,C8*
X53685000Y22560000D02*
X51815000Y22560000D01*
X53685000Y18650000D02*
X53685000Y22560000D01*
X51815000Y22560000D02*
X51815000Y18650000D01*
G04 #@! TO.C,R4*
X51010000Y20875279D02*
X51010000Y20549721D01*
X49990000Y20875279D02*
X49990000Y20549721D01*
G04 #@! TO.C,U1*
X45750000Y16190000D02*
X43800000Y16190000D01*
X45750000Y21310000D02*
X47700000Y21310000D01*
X45750000Y16190000D02*
X47700000Y16190000D01*
X45750000Y21310000D02*
X42300000Y21310000D01*
G04 #@! TO.C,C5*
X47700279Y22760000D02*
X47374721Y22760000D01*
X47700279Y21740000D02*
X47374721Y21740000D01*
G04 #@! TO.C,L1*
X47800000Y3200000D02*
X35200000Y3200000D01*
X47800000Y6200000D02*
X47800000Y3200000D01*
X35200000Y3200000D02*
X35200000Y6200000D01*
X35200000Y15800000D02*
X47800000Y15800000D01*
X47800000Y15800000D02*
X47800000Y12800000D01*
X35200000Y12800000D02*
X35200000Y15800000D01*
G04 #@! TO.C,D9*
X34650000Y27300000D02*
X36350000Y27300000D01*
X34650000Y27300000D02*
X34650000Y29850000D01*
X36350000Y27300000D02*
X36350000Y29850000D01*
G04 #@! TO.C,D1*
X17200000Y3900000D02*
X18600000Y3900000D01*
X17200000Y8400000D02*
X17200000Y7600000D01*
X17200000Y3400000D02*
X17200000Y3900000D01*
X12800000Y3400000D02*
X17200000Y3400000D01*
X12800000Y7600000D02*
X12800000Y8400000D01*
X12800000Y5100000D02*
X12800000Y6700000D01*
X12800000Y4200000D02*
X12800000Y3400000D01*
X17200000Y5100000D02*
X17200000Y6700000D01*
X12800000Y8400000D02*
X17200000Y8400000D01*
G04 #@! TO.C,RV1*
X37250000Y26500000D02*
X35250000Y24500000D01*
X42250000Y19400000D02*
X35250000Y19400000D01*
X35250000Y24500000D02*
X35250000Y19400000D01*
X42250000Y26500000D02*
X42250000Y19400000D01*
X37250000Y26500000D02*
X42250000Y26500000D01*
D13*
X36250000Y26000000D02*
G75*
G03*
X36250000Y26000000I-500000J0D01*
G01*
D10*
G04 #@! TO.C,C1*
X31010000Y5954437D02*
X31010000Y11710000D01*
X25254437Y4890000D02*
X24190000Y5954437D01*
X29945563Y4890000D02*
X28660000Y4890000D01*
X25358750Y4256250D02*
X26146250Y4256250D01*
X24190000Y11710000D02*
X26540000Y11710000D01*
X29945563Y4890000D02*
X31010000Y5954437D01*
X31010000Y11710000D02*
X28660000Y11710000D01*
X25254437Y4890000D02*
X26540000Y4890000D01*
X25752500Y3862500D02*
X25752500Y4650000D01*
X24190000Y5954437D02*
X24190000Y11710000D01*
G04 #@! TO.C,Q1*
X57330000Y21510000D02*
X56400000Y21510000D01*
X54170000Y21510000D02*
X54170000Y19350000D01*
X57330000Y21510000D02*
X57330000Y20050000D01*
X54170000Y21510000D02*
X55100000Y21510000D01*
G04 #@! TO.C,kibuzzard-624D4ACF*
G36*
X-1051855Y11464243D02*
G01*
X-1049950Y11408998D01*
X-1054712Y11346133D01*
X-1073762Y11292793D01*
X-1113767Y11256598D01*
X-1181395Y11243263D01*
X-1289027Y11288983D01*
X-1328080Y11424238D01*
X-1328080Y11515678D01*
X-1057570Y11515678D01*
X-1051855Y11464243D01*
G37*
G36*
X-1522390Y11389948D02*
G01*
X-1559538Y11244215D01*
X-1682410Y11189923D01*
X-1767183Y11208973D01*
X-1818618Y11257550D01*
X-1843383Y11325178D01*
X-1850050Y11403283D01*
X-1848145Y11461385D01*
X-1842430Y11515678D01*
X-1522390Y11515678D01*
X-1522390Y11389948D01*
G37*
G36*
X-1450000Y4803410D02*
G01*
X-1332842Y4776740D01*
X-1214732Y4746260D01*
X-1088050Y4711017D01*
X-1214732Y4675775D01*
X-1332842Y4645295D01*
X-1450000Y4619577D01*
X-1571920Y4596717D01*
X-1571920Y4827222D01*
X-1450000Y4803410D01*
G37*
G36*
X-2450760Y3283802D02*
G01*
X-2450760Y5168217D01*
X-2038645Y5168217D01*
X-2038645Y4924377D01*
X-1766230Y4871037D01*
X-1766230Y4556712D01*
X-2038645Y4501467D01*
X-2038645Y4250007D01*
X-1904952Y4281440D01*
X-1775145Y4313253D01*
X-1649225Y4345448D01*
X-1527191Y4378023D01*
X-1409042Y4410980D01*
X-1265751Y4452473D01*
X-1126388Y4494086D01*
X-990955Y4535817D01*
X-859450Y4577667D01*
X-859450Y4832937D01*
X-989883Y4873300D01*
X-1124007Y4914376D01*
X-1261822Y4956167D01*
X-1403327Y4998672D01*
X-1520485Y5032886D01*
X-1642596Y5066948D01*
X-1769659Y5100857D01*
X-1901676Y5134613D01*
X-2038645Y5168217D01*
X-2450760Y5168217D01*
X-2450760Y7366587D01*
X-2038645Y7366587D01*
X-2038645Y7177992D01*
X-859450Y7177992D01*
X-859450Y7389447D01*
X-1585255Y7389447D01*
X-1510960Y7423023D01*
X-1425235Y7462790D01*
X-1332366Y7507557D01*
X-1236640Y7556135D01*
X-1139247Y7607332D01*
X-1041377Y7659957D01*
X-946842Y7713297D01*
X-859450Y7766637D01*
X-859450Y7955232D01*
X-2038645Y7955232D01*
X-2038645Y7743777D01*
X-1255690Y7743777D01*
X-1386394Y7672975D01*
X-1516887Y7605347D01*
X-1647168Y7540895D01*
X-1777448Y7479618D01*
X-1907941Y7421515D01*
X-2038645Y7366587D01*
X-2450760Y7366587D01*
X-2450760Y8143828D01*
X-2038645Y8143828D01*
X-1844335Y8143828D01*
X-1844335Y8399098D01*
X-1053760Y8399098D01*
X-1053760Y8143828D01*
X-859450Y8143828D01*
X-859450Y8892493D01*
X-1053760Y8892493D01*
X-1053760Y8635318D01*
X-1844335Y8635318D01*
X-1844335Y8892493D01*
X-2038645Y8892493D01*
X-2038645Y8143828D01*
X-2450760Y8143828D01*
X-2450760Y11422333D01*
X-2053885Y11422333D01*
X-2049361Y11328273D01*
X-2035788Y11240405D01*
X-2011499Y11161348D01*
X-1974828Y11093720D01*
X-1860528Y10995613D01*
X-1780279Y10968466D01*
X-1682410Y10959418D01*
X-1602400Y10970133D01*
X-1526200Y11002280D01*
X-1459525Y11064431D01*
X-1408090Y11165158D01*
X-1305220Y11055620D01*
X-1235687Y11024902D01*
X-1156630Y11014663D01*
X-1046140Y11031808D01*
X-946128Y11096578D01*
X-873737Y11228023D01*
X-853021Y11324225D01*
X-846115Y11445193D01*
X-854687Y11603308D01*
X-874690Y11749993D01*
X-2019595Y11749993D01*
X-2034597Y11667601D01*
X-2045313Y11584258D01*
X-2051742Y11501866D01*
X-2053885Y11422333D01*
X-2450760Y11422333D01*
X-2450760Y12716198D01*
X-449240Y13316654D01*
X-449240Y2683346D01*
X-2450760Y3283802D01*
G37*
G04 #@! TO.C,kibuzzard-627C05F6*
G36*
X24176556Y29776916D02*
G01*
X24159728Y29673728D01*
X24131683Y29592342D01*
X24069532Y29513047D01*
X23984045Y29486615D01*
X23899749Y29513047D01*
X23837360Y29592342D01*
X23808785Y29673728D01*
X23791640Y29776916D01*
X23785925Y29901905D01*
X23786803Y29920955D01*
X23879270Y29920955D01*
X23907845Y29832372D01*
X23985950Y29795225D01*
X24061198Y29832372D01*
X24090725Y29920955D01*
X24061198Y30010490D01*
X23985950Y30048590D01*
X23907845Y30010490D01*
X23879270Y29920955D01*
X23786803Y29920955D01*
X23791640Y30025836D01*
X23808785Y30128388D01*
X23837360Y30209563D01*
X23899749Y30288858D01*
X23984045Y30315290D01*
X24069532Y30288858D01*
X24131683Y30209563D01*
X24159728Y30128388D01*
X24176556Y30025836D01*
X24182165Y29901905D01*
X24176556Y29776916D01*
G37*
G36*
X17383802Y30912190D02*
G01*
X26816198Y30912190D01*
X26816198Y28887810D01*
X17383802Y28887810D01*
X17383802Y29309450D01*
X17928050Y29309450D01*
X18669095Y29309450D01*
X18865310Y29309450D01*
X19621595Y29309450D01*
X19621595Y29503760D01*
X19099625Y29503760D01*
X19099625Y29835230D01*
X19516820Y29835230D01*
X19516820Y29900000D01*
X19749230Y29900000D01*
X19757445Y29760816D01*
X19782091Y29638539D01*
X19823168Y29533168D01*
X19880675Y29444705D01*
X19981428Y29355805D01*
X20108428Y29302465D01*
X20261675Y29284685D01*
X20365736Y29291114D01*
X20456937Y29310402D01*
X20591240Y29366600D01*
X20532185Y29551385D01*
X20435982Y29509475D01*
X20284535Y29488520D01*
X20148566Y29515428D01*
X20056887Y29596152D01*
X20018258Y29678385D01*
X19995081Y29781572D01*
X19987592Y29901905D01*
X20716970Y29901905D01*
X20723518Y29755696D01*
X20743164Y29629490D01*
X20775906Y29523286D01*
X20821745Y29437085D01*
X20902178Y29352418D01*
X21003778Y29301618D01*
X21126545Y29284685D01*
X21249312Y29301618D01*
X21350912Y29352418D01*
X21431345Y29437085D01*
X21477184Y29523286D01*
X21509926Y29629490D01*
X21529572Y29755696D01*
X21536120Y29901905D01*
X21669470Y29901905D01*
X21676018Y29755696D01*
X21695664Y29629490D01*
X21728406Y29523286D01*
X21774245Y29437085D01*
X21854678Y29352418D01*
X21956278Y29301618D01*
X22079045Y29284685D01*
X22201812Y29301618D01*
X22303412Y29352418D01*
X22383845Y29437085D01*
X22429684Y29523286D01*
X22462426Y29629490D01*
X22482072Y29755696D01*
X22488620Y29901905D01*
X22621970Y29901905D01*
X22628518Y29755696D01*
X22648164Y29629490D01*
X22680906Y29523286D01*
X22726745Y29437085D01*
X22807178Y29352418D01*
X22908778Y29301618D01*
X23031545Y29284685D01*
X23154312Y29301618D01*
X23255912Y29352418D01*
X23336345Y29437085D01*
X23382184Y29523286D01*
X23414926Y29629490D01*
X23434572Y29755696D01*
X23441120Y29901905D01*
X23574470Y29901905D01*
X23581018Y29755696D01*
X23600664Y29629490D01*
X23633406Y29523286D01*
X23679245Y29437085D01*
X23759678Y29352418D01*
X23861278Y29301618D01*
X23984045Y29284685D01*
X24106812Y29301618D01*
X24208412Y29352418D01*
X24288845Y29437085D01*
X24334684Y29523286D01*
X24354505Y29587580D01*
X24511730Y29587580D01*
X25003220Y29587580D01*
X25003220Y29309450D01*
X25237535Y29309450D01*
X25237535Y29349455D01*
X25490900Y29349455D01*
X25549955Y29328500D01*
X25632823Y29307545D01*
X25726168Y29291352D01*
X25818560Y29284685D01*
X25928574Y29291591D01*
X26022395Y29312307D01*
X26100500Y29345645D01*
X26163365Y29390412D01*
X26245280Y29509475D01*
X26271950Y29659970D01*
X26259329Y29755696D01*
X26221467Y29837135D01*
X26160746Y29902381D01*
X26079545Y29949530D01*
X26186225Y30048590D01*
X26226230Y30183845D01*
X26203370Y30315290D01*
X26132885Y30421018D01*
X26011918Y30490550D01*
X25932146Y30509124D01*
X25839515Y30515315D01*
X25738312Y30506504D01*
X25648063Y30480073D01*
X25511855Y30410540D01*
X25595675Y30239090D01*
X25709023Y30293383D01*
X25841420Y30315290D01*
X25949053Y30278143D01*
X25988105Y30176225D01*
X25970008Y30103835D01*
X25923335Y30058115D01*
X25858565Y30033350D01*
X25786175Y30025730D01*
X25698545Y30025730D01*
X25698545Y29831420D01*
X25770935Y29831420D01*
X25875234Y29822133D01*
X25959530Y29794272D01*
X26015251Y29743076D01*
X26033825Y29663780D01*
X25985248Y29536145D01*
X25918811Y29497569D01*
X25816655Y29484710D01*
X25726406Y29489949D01*
X25649968Y29505665D01*
X25536620Y29545670D01*
X25490900Y29349455D01*
X25237535Y29349455D01*
X25237535Y29587580D01*
X25365170Y29587580D01*
X25365170Y29779985D01*
X25237535Y29779985D01*
X25237535Y30488645D01*
X25027985Y30488645D01*
X24951785Y30407444D01*
X24875585Y30316243D01*
X24801290Y30219326D01*
X24730805Y30120980D01*
X24665083Y30023111D01*
X24605075Y29927623D01*
X24553164Y29838326D01*
X24511730Y29759030D01*
X24511730Y29587580D01*
X24354505Y29587580D01*
X24367426Y29629490D01*
X24387072Y29755696D01*
X24393620Y29901905D01*
X24387072Y30047221D01*
X24367426Y30172653D01*
X24334684Y30278202D01*
X24288845Y30363868D01*
X24208412Y30448005D01*
X24106812Y30498488D01*
X23984045Y30515315D01*
X23863183Y30498382D01*
X23762218Y30447582D01*
X23681150Y30362915D01*
X23634478Y30276952D01*
X23601140Y30171463D01*
X23581138Y30046447D01*
X23574470Y29901905D01*
X23441120Y29901905D01*
X23434572Y30047221D01*
X23414926Y30172653D01*
X23382184Y30278202D01*
X23336345Y30363868D01*
X23255912Y30448005D01*
X23154312Y30498488D01*
X23031545Y30515315D01*
X22910683Y30498382D01*
X22809718Y30447582D01*
X22728650Y30362915D01*
X22681978Y30276952D01*
X22648640Y30171463D01*
X22628638Y30046447D01*
X22621970Y29901905D01*
X22488620Y29901905D01*
X22482072Y30047221D01*
X22462426Y30172653D01*
X22429684Y30278202D01*
X22383845Y30363868D01*
X22303412Y30448005D01*
X22201812Y30498488D01*
X22079045Y30515315D01*
X21958183Y30498382D01*
X21857218Y30447582D01*
X21776150Y30362915D01*
X21729477Y30276952D01*
X21696140Y30171463D01*
X21676137Y30046447D01*
X21669470Y29901905D01*
X21536120Y29901905D01*
X21529572Y30047221D01*
X21509926Y30172653D01*
X21477184Y30278202D01*
X21431345Y30363868D01*
X21350912Y30448005D01*
X21249312Y30498488D01*
X21126545Y30515315D01*
X21005683Y30498382D01*
X20904718Y30447582D01*
X20823650Y30362915D01*
X20776977Y30276952D01*
X20743640Y30171463D01*
X20723637Y30046447D01*
X20716970Y29901905D01*
X19987592Y29901905D01*
X19987355Y29905715D01*
X19993784Y30012395D01*
X20013073Y30100025D01*
X20079748Y30224803D01*
X20173092Y30291478D01*
X20280725Y30311480D01*
X20422647Y30291478D01*
X20528375Y30242900D01*
X20589335Y30429590D01*
X20550282Y30452450D01*
X20486465Y30481025D01*
X20397882Y30504838D01*
X20284535Y30515315D01*
X20172854Y30505076D01*
X20070223Y30474358D01*
X19978782Y30423875D01*
X19900677Y30354343D01*
X19837098Y30266474D01*
X19789235Y30160985D01*
X19759231Y30038589D01*
X19749230Y29900000D01*
X19516820Y29900000D01*
X19516820Y30029540D01*
X19099625Y30029540D01*
X19099625Y30294335D01*
X19579685Y30294335D01*
X19579685Y30488645D01*
X18865310Y30488645D01*
X18865310Y29309450D01*
X18669095Y29309450D01*
X18669095Y29503760D01*
X18164270Y29503760D01*
X18164270Y30488645D01*
X17928050Y30488645D01*
X17928050Y29309450D01*
X17383802Y29309450D01*
X17383802Y30912190D01*
G37*
G36*
X23224056Y29776916D02*
G01*
X23207228Y29673728D01*
X23179183Y29592342D01*
X23117032Y29513047D01*
X23031545Y29486615D01*
X22947249Y29513047D01*
X22884860Y29592342D01*
X22856285Y29673728D01*
X22839140Y29776916D01*
X22833425Y29901905D01*
X22834303Y29920955D01*
X22926770Y29920955D01*
X22955345Y29832372D01*
X23033450Y29795225D01*
X23108698Y29832372D01*
X23138225Y29920955D01*
X23108698Y30010490D01*
X23033450Y30048590D01*
X22955345Y30010490D01*
X22926770Y29920955D01*
X22834303Y29920955D01*
X22839140Y30025836D01*
X22856285Y30128388D01*
X22884860Y30209563D01*
X22947249Y30288858D01*
X23031545Y30315290D01*
X23117032Y30288858D01*
X23179183Y30209563D01*
X23207228Y30128388D01*
X23224056Y30025836D01*
X23229665Y29901905D01*
X23224056Y29776916D01*
G37*
G36*
X21319056Y29776916D02*
G01*
X21302228Y29673728D01*
X21274182Y29592342D01*
X21212032Y29513047D01*
X21126545Y29486615D01*
X21042249Y29513047D01*
X20979860Y29592342D01*
X20951285Y29673728D01*
X20934140Y29776916D01*
X20928425Y29901905D01*
X20929303Y29920955D01*
X21021770Y29920955D01*
X21050345Y29832372D01*
X21128450Y29795225D01*
X21203697Y29832372D01*
X21233225Y29920955D01*
X21203697Y30010490D01*
X21128450Y30048590D01*
X21050345Y30010490D01*
X21021770Y29920955D01*
X20929303Y29920955D01*
X20934140Y30025836D01*
X20951285Y30128388D01*
X20979860Y30209563D01*
X21042249Y30288858D01*
X21126545Y30315290D01*
X21212032Y30288858D01*
X21274182Y30209563D01*
X21302228Y30128388D01*
X21319056Y30025836D01*
X21324665Y29901905D01*
X21319056Y29776916D01*
G37*
G36*
X22271556Y29776916D02*
G01*
X22254728Y29673728D01*
X22226683Y29592342D01*
X22164532Y29513047D01*
X22079045Y29486615D01*
X21994749Y29513047D01*
X21932360Y29592342D01*
X21903785Y29673728D01*
X21886640Y29776916D01*
X21880925Y29901905D01*
X21881803Y29920955D01*
X21974270Y29920955D01*
X22002845Y29832372D01*
X22080950Y29795225D01*
X22156198Y29832372D01*
X22185725Y29920955D01*
X22156198Y30010490D01*
X22080950Y30048590D01*
X22002845Y30010490D01*
X21974270Y29920955D01*
X21881803Y29920955D01*
X21886640Y30025836D01*
X21903785Y30128388D01*
X21932360Y30209563D01*
X21994749Y30288858D01*
X22079045Y30315290D01*
X22164532Y30288858D01*
X22226683Y30209563D01*
X22254728Y30128388D01*
X22271556Y30025836D01*
X22277165Y29901905D01*
X22271556Y29776916D01*
G37*
G36*
X25003220Y29779985D02*
G01*
X24736520Y29779985D01*
X24793670Y29888570D01*
X24861298Y29998108D01*
X24932735Y30101930D01*
X25003220Y30195275D01*
X25003220Y29779985D01*
G37*
G04 #@! TO.C,kibuzzard-624D4A7D*
G36*
X57479120Y32279095D02*
G01*
X57535318Y32191465D01*
X57561988Y32060973D01*
X57566988Y31983106D01*
X57568655Y31900000D01*
X57566988Y31817132D01*
X57561988Y31739980D01*
X57535318Y31609487D01*
X57479120Y31520905D01*
X57381965Y31488520D01*
X57284810Y31520905D01*
X57228613Y31608535D01*
X57201943Y31739027D01*
X57196942Y31816894D01*
X57195275Y31900000D01*
X57196942Y31982868D01*
X57201943Y32060020D01*
X57228613Y32190513D01*
X57285763Y32279095D01*
X57381965Y32311480D01*
X57479120Y32279095D01*
G37*
G36*
X56568530Y31507570D02*
G01*
X56530430Y31502807D01*
X56498045Y31501855D01*
X56413749Y31512809D01*
X56347550Y31545670D01*
X56304687Y31601867D01*
X56290400Y31682830D01*
X56343740Y31815227D01*
X56413749Y31850232D01*
X56517095Y31861900D01*
X56568530Y31861900D01*
X56568530Y31507570D01*
G37*
G36*
X52183802Y32912190D02*
G01*
X61616198Y32912190D01*
X62223512Y30887810D01*
X51576488Y30887810D01*
X51999017Y32296240D01*
X54124415Y32296240D01*
X54646385Y32296240D01*
X54646385Y31964770D01*
X54229190Y31964770D01*
X54229190Y31770460D01*
X54646385Y31770460D01*
X54646385Y31505665D01*
X54166325Y31505665D01*
X54166325Y31311355D01*
X54880700Y31311355D01*
X54880700Y32433400D01*
X55059770Y32433400D01*
X55118825Y32248615D01*
X55215027Y32290525D01*
X55366475Y32311480D01*
X55502444Y32284572D01*
X55594122Y32203848D01*
X55632752Y32121615D01*
X55655929Y32018428D01*
X55663655Y31894285D01*
X55657226Y31787605D01*
X55637937Y31699975D01*
X55571262Y31575197D01*
X55477917Y31508522D01*
X55370285Y31488520D01*
X55228362Y31508522D01*
X55122635Y31557100D01*
X55061675Y31370410D01*
X55100727Y31347550D01*
X55164545Y31318975D01*
X55253127Y31295162D01*
X55366475Y31284685D01*
X55478156Y31294924D01*
X55580787Y31325642D01*
X55672227Y31376125D01*
X55750332Y31445657D01*
X55813912Y31533526D01*
X55861775Y31639015D01*
X55891779Y31761411D01*
X55901780Y31900000D01*
X55893565Y32039184D01*
X55868919Y32161461D01*
X55827842Y32266832D01*
X55770335Y32355295D01*
X55669582Y32444195D01*
X55559213Y32490550D01*
X55974170Y32490550D01*
X56028462Y32365773D01*
X56094185Y32234328D01*
X56164670Y32108598D01*
X56233250Y31999060D01*
X56149906Y31945244D01*
X56094185Y31871425D01*
X56062752Y31782842D01*
X56052275Y31684735D01*
X56060133Y31592104D01*
X56083707Y31512332D01*
X56174195Y31391365D01*
X56238965Y31349931D01*
X56315165Y31320880D01*
X56401842Y31303735D01*
X56498045Y31298020D01*
X56564720Y31299925D01*
X56644730Y31304687D01*
X56727597Y31314212D01*
X56802845Y31328500D01*
X56802845Y31900000D01*
X56957150Y31900000D01*
X56963937Y31756946D01*
X56984296Y31632586D01*
X57018229Y31526918D01*
X57065735Y31439942D01*
X57149132Y31353688D01*
X57254542Y31301936D01*
X57381965Y31284685D01*
X57505578Y31301936D01*
X57524532Y31311355D01*
X57968705Y31311355D01*
X58690700Y31311355D01*
X58690700Y31679020D01*
X58890725Y31679020D01*
X58959305Y31467565D01*
X59014550Y31486615D01*
X59065985Y31509475D01*
X59124088Y31542812D01*
X59182190Y31579960D01*
X59229815Y31612345D01*
X59211718Y31558052D01*
X59192668Y31492330D01*
X59178380Y31425655D01*
X59172665Y31370410D01*
X59172665Y31311355D01*
X59393645Y31311355D01*
X59393645Y31370410D01*
X59387930Y31425655D01*
X59373643Y31492330D01*
X59355545Y31558052D01*
X59338400Y31612345D01*
X59385073Y31578055D01*
X59441270Y31539955D01*
X59498420Y31504712D01*
X59547950Y31480900D01*
X59605100Y31463755D01*
X59675585Y31671400D01*
X59618435Y31690450D01*
X59565095Y31703785D01*
X59498420Y31712357D01*
X59430793Y31715215D01*
X59372690Y31715215D01*
X59418410Y31748552D01*
X59470798Y31791415D01*
X59520328Y31837135D01*
X59557475Y31879045D01*
X59593670Y31926670D01*
X59414600Y32054305D01*
X59378405Y32006680D01*
X59350783Y31959055D01*
X59324113Y31898095D01*
X59300300Y31833325D01*
X59283155Y31778080D01*
X59265058Y31834277D01*
X59241245Y31899047D01*
X59213623Y31960960D01*
X59186000Y32008585D01*
X59151710Y32056210D01*
X58972640Y31926670D01*
X59008835Y31879045D01*
X59045030Y31837135D01*
X59094560Y31792367D01*
X59147900Y31750457D01*
X59195525Y31717120D01*
X59137423Y31717120D01*
X59069795Y31714262D01*
X59003120Y31707595D01*
X58947875Y31696165D01*
X58890725Y31679020D01*
X58690700Y31679020D01*
X58690700Y32490550D01*
X58456385Y32490550D01*
X58456385Y31985725D01*
X58029665Y31985725D01*
X58029665Y31791415D01*
X58456385Y31791415D01*
X58456385Y31505665D01*
X57968705Y31505665D01*
X57968705Y31311355D01*
X57524532Y31311355D01*
X57609718Y31353688D01*
X57694385Y31439942D01*
X57743558Y31526918D01*
X57778681Y31632586D01*
X57799755Y31756946D01*
X57806780Y31900000D01*
X57799934Y32043054D01*
X57779396Y32167414D01*
X57745165Y32273082D01*
X57697243Y32360058D01*
X57613317Y32446312D01*
X57507589Y32498064D01*
X57380060Y32515315D01*
X57255600Y32498064D01*
X57151460Y32446312D01*
X57067640Y32360058D01*
X57019301Y32273082D01*
X56984773Y32167414D01*
X56964056Y32043054D01*
X56957150Y31900000D01*
X56802845Y31900000D01*
X56802845Y32490550D01*
X56568530Y32490550D01*
X56568530Y32056210D01*
X56446610Y32056210D01*
X56382078Y32164081D01*
X56321832Y32270523D01*
X56267302Y32378393D01*
X56219915Y32490550D01*
X55974170Y32490550D01*
X55559213Y32490550D01*
X55542582Y32497535D01*
X55389335Y32515315D01*
X55285274Y32508886D01*
X55194072Y32489598D01*
X55059770Y32433400D01*
X54880700Y32433400D01*
X54880700Y32490550D01*
X54124415Y32490550D01*
X54124415Y32296240D01*
X51999017Y32296240D01*
X52183802Y32912190D01*
G37*
G04 #@! TO.C,D10*
X55650000Y18100000D02*
X55650000Y15550000D01*
X57350000Y18100000D02*
X55650000Y18100000D01*
X57350000Y18100000D02*
X57350000Y15550000D01*
G04 #@! TO.C,kibuzzard-624D4BCC*
G36*
X75491025Y32279095D02*
G01*
X75547223Y32191465D01*
X75573893Y32060973D01*
X75578893Y31983106D01*
X75580560Y31900000D01*
X75578893Y31817132D01*
X75573893Y31739980D01*
X75547223Y31609487D01*
X75491025Y31520905D01*
X75393870Y31488520D01*
X75296715Y31520905D01*
X75240517Y31608535D01*
X75213848Y31739027D01*
X75208847Y31816894D01*
X75207180Y31900000D01*
X75208847Y31982868D01*
X75213848Y32060020D01*
X75240517Y32190513D01*
X75297668Y32279095D01*
X75393870Y32311480D01*
X75491025Y32279095D01*
G37*
G36*
X63820651Y32912190D02*
G01*
X78379349Y32912190D01*
X78986663Y30887810D01*
X63213337Y30887810D01*
X63635866Y32296240D01*
X65465010Y32296240D01*
X65971740Y32296240D01*
X65951737Y32233375D01*
X65903160Y32165748D01*
X65842200Y32100978D01*
X65785050Y32046685D01*
X65687895Y31951435D01*
X65602170Y31848565D01*
X65541210Y31739027D01*
X65518350Y31621870D01*
X65548830Y31474232D01*
X65630745Y31368505D01*
X65748855Y31305640D01*
X65887920Y31284685D01*
X65987218Y31294210D01*
X66086992Y31322785D01*
X66181052Y31371362D01*
X66263205Y31440895D01*
X66147000Y31604725D01*
X66026985Y31515190D01*
X65910780Y31488520D01*
X65800290Y31527572D01*
X65756475Y31639015D01*
X65791717Y31739980D01*
X65881252Y31842850D01*
X65937450Y31897381D01*
X65997457Y31954293D01*
X66057465Y32014776D01*
X66113662Y32080023D01*
X66163192Y32150746D01*
X66203197Y32227660D01*
X66229629Y32311480D01*
X66238440Y32402920D01*
X66239165Y32433400D01*
X66404175Y32433400D01*
X66463230Y32248615D01*
X66559432Y32290525D01*
X66710880Y32311480D01*
X66846849Y32284572D01*
X66938527Y32203848D01*
X66977157Y32121615D01*
X67000334Y32018428D01*
X67008060Y31894285D01*
X67001631Y31787605D01*
X66982342Y31699975D01*
X66915667Y31575197D01*
X66822322Y31508522D01*
X66714690Y31488520D01*
X66572767Y31508522D01*
X66467040Y31557100D01*
X66406080Y31370410D01*
X66445132Y31347550D01*
X66508950Y31318975D01*
X66597532Y31295162D01*
X66710880Y31284685D01*
X66822561Y31294924D01*
X66925192Y31325642D01*
X67016633Y31376125D01*
X67094738Y31445657D01*
X67158317Y31533526D01*
X67206180Y31639015D01*
X67236184Y31761411D01*
X67246185Y31900000D01*
X67237970Y32039184D01*
X67213324Y32161461D01*
X67172247Y32266832D01*
X67153130Y32296240D01*
X69275010Y32296240D01*
X69781740Y32296240D01*
X69761737Y32233375D01*
X69713160Y32165748D01*
X69652200Y32100978D01*
X69595050Y32046685D01*
X69497895Y31951435D01*
X69412170Y31848565D01*
X69351210Y31739027D01*
X69328350Y31621870D01*
X69358830Y31474232D01*
X69440745Y31368505D01*
X69558855Y31305640D01*
X69697920Y31284685D01*
X69797218Y31294210D01*
X69896992Y31322785D01*
X69991052Y31371362D01*
X70073205Y31440895D01*
X69957000Y31604725D01*
X69836985Y31515190D01*
X69720780Y31488520D01*
X69610290Y31527572D01*
X69566475Y31639015D01*
X69601717Y31739980D01*
X69691252Y31842850D01*
X69747450Y31897381D01*
X69807457Y31954293D01*
X69867465Y32014776D01*
X69923662Y32080023D01*
X69973192Y32150746D01*
X70013197Y32227660D01*
X70039629Y32311480D01*
X70048440Y32402920D01*
X70049165Y32433400D01*
X70214175Y32433400D01*
X70273230Y32248615D01*
X70369432Y32290525D01*
X70520880Y32311480D01*
X70656849Y32284572D01*
X70748527Y32203848D01*
X70787157Y32121615D01*
X70810334Y32018428D01*
X70818060Y31894285D01*
X70811631Y31787605D01*
X70792342Y31699975D01*
X70725667Y31575197D01*
X70632322Y31508522D01*
X70524690Y31488520D01*
X70382767Y31508522D01*
X70277040Y31557100D01*
X70216080Y31370410D01*
X70255132Y31347550D01*
X70318950Y31318975D01*
X70407532Y31295162D01*
X70520880Y31284685D01*
X70632561Y31294924D01*
X70687458Y31311355D01*
X71195250Y31311355D01*
X71406705Y31311355D01*
X71406705Y32037160D01*
X71440281Y31962865D01*
X71480048Y31877140D01*
X71524815Y31784271D01*
X71573393Y31688545D01*
X71624589Y31591152D01*
X71677215Y31493282D01*
X71730555Y31398747D01*
X71783895Y31311355D01*
X71972490Y31311355D01*
X71972490Y32296240D01*
X74037510Y32296240D01*
X74544240Y32296240D01*
X74524238Y32233375D01*
X74475660Y32165748D01*
X74414700Y32100978D01*
X74357550Y32046685D01*
X74260395Y31951435D01*
X74174670Y31848565D01*
X74113710Y31739027D01*
X74090850Y31621870D01*
X74121330Y31474232D01*
X74203245Y31368505D01*
X74321355Y31305640D01*
X74460420Y31284685D01*
X74559718Y31294210D01*
X74659493Y31322785D01*
X74753552Y31371362D01*
X74835705Y31440895D01*
X74719500Y31604725D01*
X74599485Y31515190D01*
X74483280Y31488520D01*
X74372790Y31527572D01*
X74328975Y31639015D01*
X74364218Y31739980D01*
X74453753Y31842850D01*
X74509950Y31897381D01*
X74512711Y31900000D01*
X74969055Y31900000D01*
X74975842Y31756946D01*
X74996201Y31632586D01*
X75030134Y31526918D01*
X75077640Y31439942D01*
X75161037Y31353688D01*
X75266447Y31301936D01*
X75393870Y31284685D01*
X75517483Y31301936D01*
X75536437Y31311355D01*
X75957750Y31311355D01*
X76169205Y31311355D01*
X76169205Y32037160D01*
X76202781Y31962865D01*
X76242548Y31877140D01*
X76287315Y31784271D01*
X76335893Y31688545D01*
X76387089Y31591152D01*
X76439715Y31493282D01*
X76493055Y31398747D01*
X76546395Y31311355D01*
X76734990Y31311355D01*
X76734990Y32490550D01*
X76523535Y32490550D01*
X76523535Y31707595D01*
X76452733Y31838299D01*
X76385105Y31968792D01*
X76320653Y32099073D01*
X76259375Y32229353D01*
X76201273Y32359846D01*
X76146345Y32490550D01*
X75957750Y32490550D01*
X75957750Y31311355D01*
X75536437Y31311355D01*
X75621623Y31353688D01*
X75706290Y31439942D01*
X75755463Y31526918D01*
X75790586Y31632586D01*
X75811660Y31756946D01*
X75818685Y31900000D01*
X75811839Y32043054D01*
X75791301Y32167414D01*
X75757070Y32273082D01*
X75709148Y32360058D01*
X75625222Y32446312D01*
X75519494Y32498064D01*
X75391965Y32515315D01*
X75267505Y32498064D01*
X75163365Y32446312D01*
X75079545Y32360058D01*
X75031206Y32273082D01*
X74996678Y32167414D01*
X74975961Y32043054D01*
X74969055Y31900000D01*
X74512711Y31900000D01*
X74569958Y31954293D01*
X74629965Y32014776D01*
X74686163Y32080023D01*
X74735693Y32150746D01*
X74775698Y32227660D01*
X74802129Y32311480D01*
X74810940Y32402920D01*
X74811893Y32442925D01*
X74807130Y32490550D01*
X74037510Y32490550D01*
X74037510Y32296240D01*
X71972490Y32296240D01*
X71972490Y32490550D01*
X71761035Y32490550D01*
X71761035Y31707595D01*
X71690233Y31838299D01*
X71622605Y31968792D01*
X71558153Y32099073D01*
X71496875Y32229353D01*
X71438773Y32359846D01*
X71383845Y32490550D01*
X71195250Y32490550D01*
X71195250Y31311355D01*
X70687458Y31311355D01*
X70735192Y31325642D01*
X70826632Y31376125D01*
X70904737Y31445657D01*
X70968317Y31533526D01*
X71016180Y31639015D01*
X71046184Y31761411D01*
X71056185Y31900000D01*
X71047970Y32039184D01*
X71023324Y32161461D01*
X70982247Y32266832D01*
X70924740Y32355295D01*
X70823987Y32444195D01*
X70696987Y32497535D01*
X70543740Y32515315D01*
X70439679Y32508886D01*
X70348477Y32489598D01*
X70214175Y32433400D01*
X70049165Y32433400D01*
X70049392Y32442925D01*
X70044630Y32490550D01*
X69275010Y32490550D01*
X69275010Y32296240D01*
X67153130Y32296240D01*
X67114740Y32355295D01*
X67013987Y32444195D01*
X66886987Y32497535D01*
X66733740Y32515315D01*
X66629679Y32508886D01*
X66538477Y32489598D01*
X66404175Y32433400D01*
X66239165Y32433400D01*
X66239392Y32442925D01*
X66234630Y32490550D01*
X65465010Y32490550D01*
X65465010Y32296240D01*
X63635866Y32296240D01*
X63820651Y32912190D01*
G37*
G04 #@! TO.C,kibuzzard-624D4BDE*
G36*
X63213337Y3112190D02*
G01*
X78986663Y3112190D01*
X78379349Y1087810D01*
X63820651Y1087810D01*
X63516994Y2100000D01*
X65449770Y2100000D01*
X65457985Y1960816D01*
X65482631Y1838539D01*
X65523708Y1733168D01*
X65581215Y1644705D01*
X65681968Y1555805D01*
X65808968Y1502465D01*
X65962215Y1484685D01*
X66066276Y1491114D01*
X66157477Y1510402D01*
X66291780Y1566600D01*
X66232725Y1751385D01*
X66136522Y1709475D01*
X65985075Y1688520D01*
X65849106Y1715428D01*
X65757427Y1796152D01*
X65718798Y1878385D01*
X65695621Y1981572D01*
X65687895Y2105715D01*
X65694324Y2212395D01*
X65713612Y2300025D01*
X65780287Y2424803D01*
X65873632Y2491478D01*
X65981265Y2511480D01*
X66123187Y2491478D01*
X66228915Y2442900D01*
X66442275Y2442900D01*
X66518475Y2248590D01*
X66634680Y2295263D01*
X66756600Y2362890D01*
X66756600Y1703760D01*
X66508950Y1703760D01*
X66508950Y1509450D01*
X67225230Y1509450D01*
X69295965Y1509450D01*
X69507420Y1509450D01*
X69507420Y2292405D01*
X69578222Y2161701D01*
X69645850Y2031208D01*
X69710302Y1900927D01*
X69771580Y1770647D01*
X69829682Y1640154D01*
X69884610Y1509450D01*
X70073205Y1509450D01*
X70073205Y2100000D01*
X70212270Y2100000D01*
X70220485Y1960816D01*
X70245131Y1838539D01*
X70286208Y1733168D01*
X70343715Y1644705D01*
X70444468Y1555805D01*
X70571468Y1502465D01*
X70724715Y1484685D01*
X70828776Y1491114D01*
X70919977Y1510402D01*
X71054280Y1566600D01*
X70995225Y1751385D01*
X70899022Y1709475D01*
X70747575Y1688520D01*
X70611606Y1715428D01*
X70519927Y1796152D01*
X70481298Y1878385D01*
X70458121Y1981572D01*
X70450395Y2105715D01*
X70456824Y2212395D01*
X70476112Y2300025D01*
X70542787Y2424803D01*
X70636132Y2491478D01*
X70743765Y2511480D01*
X70885687Y2491478D01*
X70991415Y2442900D01*
X71204775Y2442900D01*
X71280975Y2248590D01*
X71397180Y2295263D01*
X71519100Y2362890D01*
X71519100Y1703760D01*
X71271450Y1703760D01*
X71271450Y1509450D01*
X71987730Y1509450D01*
X74058465Y1509450D01*
X74269920Y1509450D01*
X74269920Y2292405D01*
X74340723Y2161701D01*
X74408350Y2031208D01*
X74472803Y1900927D01*
X74534080Y1770647D01*
X74592183Y1640154D01*
X74647110Y1509450D01*
X74835705Y1509450D01*
X74835705Y2101905D01*
X74990010Y2101905D01*
X74996558Y1955696D01*
X75016204Y1829490D01*
X75048946Y1723286D01*
X75094785Y1637085D01*
X75175218Y1552418D01*
X75276818Y1501618D01*
X75399585Y1484685D01*
X75522352Y1501618D01*
X75623952Y1552418D01*
X75704385Y1637085D01*
X75750224Y1723286D01*
X75782966Y1829490D01*
X75802612Y1955696D01*
X75809160Y2101905D01*
X75802612Y2247221D01*
X75782966Y2372653D01*
X75761175Y2442900D01*
X75967275Y2442900D01*
X76043475Y2248590D01*
X76159680Y2295263D01*
X76281600Y2362890D01*
X76281600Y1703760D01*
X76033950Y1703760D01*
X76033950Y1509450D01*
X76750230Y1509450D01*
X76750230Y1703760D01*
X76515915Y1703760D01*
X76515915Y2688645D01*
X76355895Y2688645D01*
X76273980Y2614350D01*
X76173015Y2545770D01*
X76066335Y2486715D01*
X75967275Y2442900D01*
X75761175Y2442900D01*
X75750224Y2478202D01*
X75704385Y2563868D01*
X75623952Y2648005D01*
X75522352Y2698488D01*
X75399585Y2715315D01*
X75278723Y2698382D01*
X75177758Y2647582D01*
X75096690Y2562915D01*
X75050018Y2476952D01*
X75016680Y2371463D01*
X74996678Y2246447D01*
X74990010Y2101905D01*
X74835705Y2101905D01*
X74835705Y2688645D01*
X74624250Y2688645D01*
X74624250Y1962840D01*
X74590674Y2037135D01*
X74550908Y2122860D01*
X74506140Y2215729D01*
X74457563Y2311455D01*
X74406366Y2408848D01*
X74353740Y2506718D01*
X74300400Y2601253D01*
X74247060Y2688645D01*
X74058465Y2688645D01*
X74058465Y1509450D01*
X71987730Y1509450D01*
X71987730Y1703760D01*
X71753415Y1703760D01*
X71753415Y2688645D01*
X71593395Y2688645D01*
X71511480Y2614350D01*
X71410515Y2545770D01*
X71303835Y2486715D01*
X71204775Y2442900D01*
X70991415Y2442900D01*
X71052375Y2629590D01*
X71013322Y2652450D01*
X70949505Y2681025D01*
X70860922Y2704838D01*
X70747575Y2715315D01*
X70635894Y2705076D01*
X70533262Y2674358D01*
X70441822Y2623875D01*
X70363717Y2554343D01*
X70300138Y2466474D01*
X70252275Y2360985D01*
X70222271Y2238589D01*
X70212270Y2100000D01*
X70073205Y2100000D01*
X70073205Y2688645D01*
X69861750Y2688645D01*
X69861750Y1962840D01*
X69828174Y2037135D01*
X69788407Y2122860D01*
X69743640Y2215729D01*
X69695062Y2311455D01*
X69643866Y2408848D01*
X69591240Y2506718D01*
X69537900Y2601253D01*
X69484560Y2688645D01*
X69295965Y2688645D01*
X69295965Y1509450D01*
X67225230Y1509450D01*
X67225230Y1703760D01*
X66990915Y1703760D01*
X66990915Y2688645D01*
X66830895Y2688645D01*
X66748980Y2614350D01*
X66648015Y2545770D01*
X66541335Y2486715D01*
X66442275Y2442900D01*
X66228915Y2442900D01*
X66289875Y2629590D01*
X66250822Y2652450D01*
X66187005Y2681025D01*
X66098422Y2704838D01*
X65985075Y2715315D01*
X65873394Y2705076D01*
X65770762Y2674358D01*
X65679322Y2623875D01*
X65601217Y2554343D01*
X65537638Y2466474D01*
X65489775Y2360985D01*
X65459771Y2238589D01*
X65449770Y2100000D01*
X63516994Y2100000D01*
X63213337Y3112190D01*
G37*
G36*
X75592096Y1976916D02*
G01*
X75575268Y1873728D01*
X75547223Y1792342D01*
X75485072Y1713047D01*
X75399585Y1686615D01*
X75315289Y1713047D01*
X75252900Y1792342D01*
X75224325Y1873728D01*
X75207180Y1976916D01*
X75201465Y2101905D01*
X75202343Y2120955D01*
X75294810Y2120955D01*
X75323385Y2032372D01*
X75401490Y1995225D01*
X75476738Y2032372D01*
X75506265Y2120955D01*
X75476738Y2210490D01*
X75401490Y2248590D01*
X75323385Y2210490D01*
X75294810Y2120955D01*
X75202343Y2120955D01*
X75207180Y2225836D01*
X75224325Y2328388D01*
X75252900Y2409563D01*
X75315289Y2488858D01*
X75399585Y2515290D01*
X75485072Y2488858D01*
X75547223Y2409563D01*
X75575268Y2328388D01*
X75592096Y2225836D01*
X75597705Y2101905D01*
X75592096Y1976916D01*
G37*
G04 #@! TO.C,kibuzzard-624D4AF8*
G36*
X-1053760Y28949003D02*
G01*
X-1051855Y28893758D01*
X-1056617Y28830893D01*
X-1075667Y28777553D01*
X-1115672Y28741358D01*
X-1183300Y28728023D01*
X-1290932Y28773743D01*
X-1329985Y28908998D01*
X-1329985Y29000438D01*
X-1059475Y29000438D01*
X-1053760Y28949003D01*
G37*
G36*
X-1524295Y28874708D02*
G01*
X-1561443Y28728975D01*
X-1684315Y28674683D01*
X-1769088Y28693733D01*
X-1820523Y28742310D01*
X-1845288Y28809938D01*
X-1851955Y28888043D01*
X-1850050Y28946145D01*
X-1844335Y29000438D01*
X-1524295Y29000438D01*
X-1524295Y28874708D01*
G37*
G36*
X-2462190Y20783802D02*
G01*
X-2462190Y22075762D01*
X-2040550Y22075762D01*
X-1055665Y22075762D01*
X-1055665Y21765247D01*
X-861355Y21765247D01*
X-861355Y22622497D01*
X-1055665Y22622497D01*
X-1055665Y22311982D01*
X-2040550Y22311982D01*
X-2040550Y22075762D01*
X-2462190Y22075762D01*
X-2462190Y23058742D01*
X-2065315Y23058742D01*
X-2058886Y22954682D01*
X-2039598Y22863480D01*
X-1983400Y22729177D01*
X-1798615Y22788232D01*
X-1840525Y22884435D01*
X-1861480Y23035882D01*
X-1834572Y23171852D01*
X-1753848Y23263530D01*
X-1671615Y23302159D01*
X-1568428Y23325337D01*
X-1444285Y23333062D01*
X-1337605Y23326633D01*
X-1249975Y23307345D01*
X-1125197Y23240670D01*
X-1058522Y23147325D01*
X-1038520Y23039692D01*
X-1058522Y22897770D01*
X-1107100Y22792042D01*
X-920410Y22731082D01*
X-897550Y22770135D01*
X-868975Y22833952D01*
X-845162Y22922535D01*
X-834685Y23035882D01*
X-844924Y23147563D01*
X-875642Y23250195D01*
X-926125Y23341635D01*
X-995657Y23419740D01*
X-1083526Y23483319D01*
X-1189015Y23531182D01*
X-1311411Y23561186D01*
X-1450000Y23571187D01*
X-1589184Y23562972D01*
X-1711461Y23538326D01*
X-1816832Y23497250D01*
X-1905295Y23439742D01*
X-1994195Y23338989D01*
X-2047535Y23211989D01*
X-2065315Y23058742D01*
X-2462190Y23058742D01*
X-2462190Y23698822D01*
X-2040550Y23698822D01*
X-1846240Y23698822D01*
X-1846240Y24220792D01*
X-1514770Y24220792D01*
X-1514770Y23803597D01*
X-1320460Y23803597D01*
X-1320460Y24220792D01*
X-1055665Y24220792D01*
X-1055665Y23740732D01*
X-861355Y23740732D01*
X-861355Y24455107D01*
X-2040550Y24455107D01*
X-2040550Y23698822D01*
X-2462190Y23698822D01*
X-2462190Y24933262D01*
X-2040550Y24933262D01*
X-1055665Y24933262D01*
X-1055665Y24622747D01*
X-861355Y24622747D01*
X-861355Y25479997D01*
X-1055665Y25479997D01*
X-1055665Y25169482D01*
X-2040550Y25169482D01*
X-2040550Y24933262D01*
X-2462190Y24933262D01*
X-2462190Y25603823D01*
X-2040550Y25603823D01*
X-1846240Y25603823D01*
X-1846240Y26125793D01*
X-1514770Y26125793D01*
X-1514770Y25708598D01*
X-1320460Y25708598D01*
X-1320460Y26125793D01*
X-1055665Y26125793D01*
X-1055665Y25645733D01*
X-861355Y25645733D01*
X-861355Y26360108D01*
X-2040550Y26360108D01*
X-2040550Y25603823D01*
X-2462190Y25603823D01*
X-2462190Y27078293D01*
X-2055790Y27078293D01*
X-2047456Y26963278D01*
X-2022453Y26858265D01*
X-1979352Y26765158D01*
X-1916725Y26685863D01*
X-1833619Y26621331D01*
X-1729083Y26572515D01*
X-1601686Y26541797D01*
X-1450000Y26531557D01*
X-1301648Y26540844D01*
X-1176632Y26568705D01*
X-1073286Y26613234D01*
X-989942Y26672528D01*
X-926363Y26746584D01*
X-882310Y26835405D01*
X-856592Y26936608D01*
X-848020Y27047813D01*
X-853735Y27179258D01*
X-876595Y27329753D01*
X-2027215Y27329753D01*
X-2049123Y27201165D01*
X-2055790Y27078293D01*
X-2462190Y27078293D01*
X-2462190Y28907093D01*
X-2055790Y28907093D01*
X-2051266Y28813033D01*
X-2037693Y28725165D01*
X-2013404Y28646108D01*
X-1976733Y28578480D01*
X-1862433Y28480373D01*
X-1782184Y28453226D01*
X-1684315Y28444178D01*
X-1604305Y28454893D01*
X-1528105Y28487040D01*
X-1461430Y28549191D01*
X-1409995Y28649918D01*
X-1307125Y28540380D01*
X-1237592Y28509662D01*
X-1158535Y28499423D01*
X-1048045Y28516568D01*
X-948032Y28581338D01*
X-875642Y28712783D01*
X-854926Y28808985D01*
X-848020Y28929953D01*
X-856592Y29088068D01*
X-876595Y29234753D01*
X-2021500Y29234753D01*
X-2036502Y29152361D01*
X-2047218Y29069018D01*
X-2053647Y28986626D01*
X-2055790Y28907093D01*
X-2462190Y28907093D01*
X-2462190Y30216198D01*
X-437810Y30823512D01*
X-437810Y20176488D01*
X-2462190Y20783802D01*
G37*
G36*
X-1052807Y27061148D02*
G01*
X-1051855Y27026858D01*
X-1085192Y26899223D01*
X-1173775Y26821118D01*
X-1301410Y26781113D01*
X-1450000Y26769683D01*
X-1534058Y26773254D01*
X-1610973Y26783970D01*
X-1737655Y26831595D01*
X-1821475Y26919225D01*
X-1851955Y27053528D01*
X-1851955Y27074483D01*
X-1850050Y27095438D01*
X-1057570Y27095438D01*
X-1052807Y27061148D01*
G37*
G04 #@! TO.C,C9*
X40690000Y17840580D02*
X40690000Y17559420D01*
X41710000Y17840580D02*
X41710000Y17559420D01*
G04 #@! TD*
M02*
