G04 #@! TF.GenerationSoftware,KiCad,Pcbnew,6.0.9-8da3e8f707~116~ubuntu20.04.1*
G04 #@! TF.CreationDate,2023-03-26T15:22:19+00:00*
G04 #@! TF.ProjectId,LEC000043,4c454330-3030-4303-9433-2e6b69636164,rev?*
G04 #@! TF.SameCoordinates,Original*
G04 #@! TF.FileFunction,Soldermask,Top*
G04 #@! TF.FilePolarity,Negative*
%FSLAX46Y46*%
G04 Gerber Fmt 4.6, Leading zero omitted, Abs format (unit mm)*
G04 Created by KiCad (PCBNEW 6.0.9-8da3e8f707~116~ubuntu20.04.1) date 2023-03-26 15:22:19*
%MOMM*%
%LPD*%
G01*
G04 APERTURE LIST*
G04 Aperture macros list*
%AMRoundRect*
0 Rectangle with rounded corners*
0 $1 Rounding radius*
0 $2 $3 $4 $5 $6 $7 $8 $9 X,Y pos of 4 corners*
0 Add a 4 corners polygon primitive as box body*
4,1,4,$2,$3,$4,$5,$6,$7,$8,$9,$2,$3,0*
0 Add four circle primitives for the rounded corners*
1,1,$1+$1,$2,$3*
1,1,$1+$1,$4,$5*
1,1,$1+$1,$6,$7*
1,1,$1+$1,$8,$9*
0 Add four rect primitives between the rounded corners*
20,1,$1+$1,$2,$3,$4,$5,0*
20,1,$1+$1,$4,$5,$6,$7,0*
20,1,$1+$1,$6,$7,$8,$9,0*
20,1,$1+$1,$8,$9,$2,$3,0*%
G04 Aperture macros list end*
%ADD10C,0.010000*%
%ADD11RoundRect,0.269750X0.218750X0.256250X-0.218750X0.256250X-0.218750X-0.256250X0.218750X-0.256250X0*%
%ADD12RoundRect,0.300600X-0.550400X1.500400X-0.550400X-1.500400X0.550400X-1.500400X0.550400X1.500400X0*%
%ADD13RoundRect,0.051000X0.225000X-0.300000X0.225000X0.300000X-0.225000X0.300000X-0.225000X-0.300000X0*%
%ADD14RoundRect,0.051000X-1.650000X-1.250000X1.650000X-1.250000X1.650000X1.250000X-1.650000X1.250000X0*%
%ADD15RoundRect,0.051000X1.650000X1.250000X-1.650000X1.250000X-1.650000X-1.250000X1.650000X-1.250000X0*%
%ADD16RoundRect,0.051000X-0.900000X1.250000X-0.900000X-1.250000X0.900000X-1.250000X0.900000X1.250000X0*%
%ADD17RoundRect,0.269750X0.256250X-0.218750X0.256250X0.218750X-0.256250X0.218750X-0.256250X-0.218750X0*%
%ADD18RoundRect,0.051000X1.500000X1.500000X-1.500000X1.500000X-1.500000X-1.500000X1.500000X-1.500000X0*%
%ADD19C,3.102000*%
%ADD20RoundRect,0.051000X-1.500000X1.500000X-1.500000X-1.500000X1.500000X-1.500000X1.500000X1.500000X0*%
%ADD21RoundRect,0.051000X-1.500000X-1.500000X1.500000X-1.500000X1.500000X1.500000X-1.500000X1.500000X0*%
%ADD22RoundRect,0.269750X-0.218750X-0.256250X0.218750X-0.256250X0.218750X0.256250X-0.218750X0.256250X0*%
%ADD23RoundRect,0.051000X-0.750000X-0.890000X0.750000X-0.890000X0.750000X0.890000X-0.750000X0.890000X0*%
%ADD24RoundRect,0.213500X0.825000X0.162500X-0.825000X0.162500X-0.825000X-0.162500X0.825000X-0.162500X0*%
%ADD25C,1.902000*%
%ADD26RoundRect,0.051000X0.900000X-0.900000X0.900000X0.900000X-0.900000X0.900000X-0.900000X-0.900000X0*%
%ADD27C,3.302000*%
%ADD28RoundRect,0.300999X-0.425001X0.450001X-0.425001X-0.450001X0.425001X-0.450001X0.425001X0.450001X0*%
%ADD29RoundRect,0.269750X-0.256250X0.218750X-0.256250X-0.218750X0.256250X-0.218750X0.256250X0.218750X0*%
%ADD30RoundRect,0.201000X-0.825000X-0.150000X0.825000X-0.150000X0.825000X0.150000X-0.825000X0.150000X0*%
%ADD31RoundRect,0.051000X1.450000X2.700000X-1.450000X2.700000X-1.450000X-2.700000X1.450000X-2.700000X0*%
%ADD32RoundRect,0.051000X0.500000X0.400000X-0.500000X0.400000X-0.500000X-0.400000X0.500000X-0.400000X0*%
%ADD33RoundRect,0.051000X-0.700000X0.700000X-0.700000X-0.700000X0.700000X-0.700000X0.700000X0.700000X0*%
%ADD34C,1.502000*%
%ADD35RoundRect,0.300600X0.550400X-1.500400X0.550400X1.500400X-0.550400X1.500400X-0.550400X-1.500400X0*%
%ADD36RoundRect,0.051000X0.400000X-0.450000X0.400000X0.450000X-0.400000X0.450000X-0.400000X-0.450000X0*%
%ADD37RoundRect,0.051000X-0.225000X0.300000X-0.225000X-0.300000X0.225000X-0.300000X0.225000X0.300000X0*%
%ADD38RoundRect,0.276000X-0.250000X0.225000X-0.250000X-0.225000X0.250000X-0.225000X0.250000X0.225000X0*%
G04 APERTURE END LIST*
G04 #@! TO.C,LOGO1*
G36*
X12368133Y30728885D02*
G01*
X12389873Y30728102D01*
X12408400Y30726865D01*
X12416804Y30725987D01*
X12478460Y30715889D01*
X12538406Y30701142D01*
X12596426Y30681880D01*
X12652304Y30658240D01*
X12705825Y30630358D01*
X12756774Y30598368D01*
X12804936Y30562408D01*
X12850095Y30522612D01*
X12892035Y30479116D01*
X12930541Y30432056D01*
X12965399Y30381567D01*
X12966677Y30379538D01*
X12972874Y30369396D01*
X12977797Y30360824D01*
X12980956Y30354716D01*
X12981857Y30351966D01*
X12981851Y30351954D01*
X12979540Y30350206D01*
X12973508Y30346064D01*
X12964300Y30339884D01*
X12952465Y30332024D01*
X12938551Y30322841D01*
X12923105Y30312692D01*
X12906674Y30301934D01*
X12889807Y30290925D01*
X12873051Y30280021D01*
X12856953Y30269581D01*
X12842062Y30259961D01*
X12828924Y30251518D01*
X12818089Y30244610D01*
X12810102Y30239593D01*
X12805512Y30236826D01*
X12804718Y30236416D01*
X12801892Y30237282D01*
X12797829Y30241905D01*
X12792229Y30250661D01*
X12789108Y30256086D01*
X12772013Y30283572D01*
X12751351Y30311998D01*
X12728153Y30340148D01*
X12703452Y30366803D01*
X12678280Y30390746D01*
X12666404Y30400860D01*
X12625770Y30430828D01*
X12582171Y30456873D01*
X12536120Y30478774D01*
X12488132Y30496310D01*
X12438721Y30509260D01*
X12398376Y30516187D01*
X12376870Y30518232D01*
X12352145Y30519278D01*
X12325684Y30519363D01*
X12298969Y30518520D01*
X12273481Y30516786D01*
X12250703Y30514196D01*
X12239750Y30512397D01*
X12189210Y30500392D01*
X12140699Y30483901D01*
X12094458Y30463143D01*
X12050728Y30438334D01*
X12009750Y30409692D01*
X11971765Y30377434D01*
X11937014Y30341777D01*
X11905738Y30302938D01*
X11878176Y30261136D01*
X11854572Y30216587D01*
X11835164Y30169508D01*
X11825123Y30138379D01*
X11814480Y30093948D01*
X11807852Y30047895D01*
X11805356Y30009855D01*
X11803952Y29968580D01*
X11582955Y29968580D01*
X11584431Y30013665D01*
X11588875Y30073235D01*
X11598163Y30131781D01*
X11612120Y30189055D01*
X11630567Y30244808D01*
X11653329Y30298794D01*
X11680230Y30350761D01*
X11711092Y30400463D01*
X11745740Y30447651D01*
X11783997Y30492077D01*
X11825686Y30533490D01*
X11870632Y30571645D01*
X11918657Y30606291D01*
X11969585Y30637180D01*
X12023240Y30664064D01*
X12056124Y30677954D01*
X12109001Y30696535D01*
X12163713Y30711237D01*
X12221129Y30722284D01*
X12236464Y30724566D01*
X12252643Y30726312D01*
X12272706Y30727661D01*
X12295468Y30728601D01*
X12319749Y30729125D01*
X12344365Y30729223D01*
X12368133Y30728885D01*
G37*
D10*
X12368133Y30728885D02*
X12389873Y30728102D01*
X12408400Y30726865D01*
X12416804Y30725987D01*
X12478460Y30715889D01*
X12538406Y30701142D01*
X12596426Y30681880D01*
X12652304Y30658240D01*
X12705825Y30630358D01*
X12756774Y30598368D01*
X12804936Y30562408D01*
X12850095Y30522612D01*
X12892035Y30479116D01*
X12930541Y30432056D01*
X12965399Y30381567D01*
X12966677Y30379538D01*
X12972874Y30369396D01*
X12977797Y30360824D01*
X12980956Y30354716D01*
X12981857Y30351966D01*
X12981851Y30351954D01*
X12979540Y30350206D01*
X12973508Y30346064D01*
X12964300Y30339884D01*
X12952465Y30332024D01*
X12938551Y30322841D01*
X12923105Y30312692D01*
X12906674Y30301934D01*
X12889807Y30290925D01*
X12873051Y30280021D01*
X12856953Y30269581D01*
X12842062Y30259961D01*
X12828924Y30251518D01*
X12818089Y30244610D01*
X12810102Y30239593D01*
X12805512Y30236826D01*
X12804718Y30236416D01*
X12801892Y30237282D01*
X12797829Y30241905D01*
X12792229Y30250661D01*
X12789108Y30256086D01*
X12772013Y30283572D01*
X12751351Y30311998D01*
X12728153Y30340148D01*
X12703452Y30366803D01*
X12678280Y30390746D01*
X12666404Y30400860D01*
X12625770Y30430828D01*
X12582171Y30456873D01*
X12536120Y30478774D01*
X12488132Y30496310D01*
X12438721Y30509260D01*
X12398376Y30516187D01*
X12376870Y30518232D01*
X12352145Y30519278D01*
X12325684Y30519363D01*
X12298969Y30518520D01*
X12273481Y30516786D01*
X12250703Y30514196D01*
X12239750Y30512397D01*
X12189210Y30500392D01*
X12140699Y30483901D01*
X12094458Y30463143D01*
X12050728Y30438334D01*
X12009750Y30409692D01*
X11971765Y30377434D01*
X11937014Y30341777D01*
X11905738Y30302938D01*
X11878176Y30261136D01*
X11854572Y30216587D01*
X11835164Y30169508D01*
X11825123Y30138379D01*
X11814480Y30093948D01*
X11807852Y30047895D01*
X11805356Y30009855D01*
X11803952Y29968580D01*
X11582955Y29968580D01*
X11584431Y30013665D01*
X11588875Y30073235D01*
X11598163Y30131781D01*
X11612120Y30189055D01*
X11630567Y30244808D01*
X11653329Y30298794D01*
X11680230Y30350761D01*
X11711092Y30400463D01*
X11745740Y30447651D01*
X11783997Y30492077D01*
X11825686Y30533490D01*
X11870632Y30571645D01*
X11918657Y30606291D01*
X11969585Y30637180D01*
X12023240Y30664064D01*
X12056124Y30677954D01*
X12109001Y30696535D01*
X12163713Y30711237D01*
X12221129Y30722284D01*
X12236464Y30724566D01*
X12252643Y30726312D01*
X12272706Y30727661D01*
X12295468Y30728601D01*
X12319749Y30729125D01*
X12344365Y30729223D01*
X12368133Y30728885D01*
G36*
X15360664Y29054180D02*
G01*
X15139684Y29054180D01*
X15139684Y30725500D01*
X15360664Y30725500D01*
X15360664Y29054180D01*
G37*
X15360664Y29054180D02*
X15139684Y29054180D01*
X15139684Y30725500D01*
X15360664Y30725500D01*
X15360664Y29054180D01*
G36*
X16002892Y30725500D02*
G01*
X16208193Y30442956D01*
X16232723Y30409165D01*
X16256417Y30376463D01*
X16279104Y30345091D01*
X16300613Y30315286D01*
X16320772Y30287289D01*
X16339411Y30261337D01*
X16356359Y30237671D01*
X16371444Y30216530D01*
X16384495Y30198152D01*
X16395342Y30182777D01*
X16403813Y30170644D01*
X16409738Y30161991D01*
X16412945Y30157058D01*
X16413494Y30155979D01*
X16412053Y30152999D01*
X16408001Y30146561D01*
X16401741Y30137221D01*
X16393679Y30125539D01*
X16384217Y30112072D01*
X16373762Y30097378D01*
X16362717Y30082016D01*
X16351486Y30066543D01*
X16340475Y30051517D01*
X16330086Y30037496D01*
X16320725Y30025038D01*
X16312796Y30014702D01*
X16306703Y30007045D01*
X16302851Y30002625D01*
X16301734Y30001753D01*
X16299995Y30003777D01*
X16295428Y30009705D01*
X16288188Y30019329D01*
X16278426Y30032439D01*
X16266297Y30048826D01*
X16251953Y30068281D01*
X16235549Y30090595D01*
X16217237Y30115558D01*
X16197171Y30142963D01*
X16175503Y30172598D01*
X16152389Y30204257D01*
X16127980Y30237728D01*
X16102430Y30272804D01*
X16075892Y30309276D01*
X16048520Y30346933D01*
X16040114Y30358507D01*
X16012482Y30396555D01*
X15985631Y30433532D01*
X15959713Y30469228D01*
X15934884Y30503428D01*
X15911298Y30535919D01*
X15889110Y30566489D01*
X15868473Y30594925D01*
X15849542Y30621015D01*
X15832472Y30644544D01*
X15817417Y30665301D01*
X15804532Y30683073D01*
X15793971Y30697646D01*
X15785888Y30708808D01*
X15780438Y30716346D01*
X15777775Y30720048D01*
X15777549Y30720370D01*
X15776801Y30721583D01*
X15776639Y30722588D01*
X15777487Y30723405D01*
X15779768Y30724053D01*
X15783905Y30724551D01*
X15790323Y30724919D01*
X15799446Y30725177D01*
X15811696Y30725345D01*
X15827497Y30725441D01*
X15847273Y30725486D01*
X15871449Y30725500D01*
X15888478Y30725501D01*
X16002892Y30725500D01*
G37*
X16002892Y30725500D02*
X16208193Y30442956D01*
X16232723Y30409165D01*
X16256417Y30376463D01*
X16279104Y30345091D01*
X16300613Y30315286D01*
X16320772Y30287289D01*
X16339411Y30261337D01*
X16356359Y30237671D01*
X16371444Y30216530D01*
X16384495Y30198152D01*
X16395342Y30182777D01*
X16403813Y30170644D01*
X16409738Y30161991D01*
X16412945Y30157058D01*
X16413494Y30155979D01*
X16412053Y30152999D01*
X16408001Y30146561D01*
X16401741Y30137221D01*
X16393679Y30125539D01*
X16384217Y30112072D01*
X16373762Y30097378D01*
X16362717Y30082016D01*
X16351486Y30066543D01*
X16340475Y30051517D01*
X16330086Y30037496D01*
X16320725Y30025038D01*
X16312796Y30014702D01*
X16306703Y30007045D01*
X16302851Y30002625D01*
X16301734Y30001753D01*
X16299995Y30003777D01*
X16295428Y30009705D01*
X16288188Y30019329D01*
X16278426Y30032439D01*
X16266297Y30048826D01*
X16251953Y30068281D01*
X16235549Y30090595D01*
X16217237Y30115558D01*
X16197171Y30142963D01*
X16175503Y30172598D01*
X16152389Y30204257D01*
X16127980Y30237728D01*
X16102430Y30272804D01*
X16075892Y30309276D01*
X16048520Y30346933D01*
X16040114Y30358507D01*
X16012482Y30396555D01*
X15985631Y30433532D01*
X15959713Y30469228D01*
X15934884Y30503428D01*
X15911298Y30535919D01*
X15889110Y30566489D01*
X15868473Y30594925D01*
X15849542Y30621015D01*
X15832472Y30644544D01*
X15817417Y30665301D01*
X15804532Y30683073D01*
X15793971Y30697646D01*
X15785888Y30708808D01*
X15780438Y30716346D01*
X15777775Y30720048D01*
X15777549Y30720370D01*
X15776801Y30721583D01*
X15776639Y30722588D01*
X15777487Y30723405D01*
X15779768Y30724053D01*
X15783905Y30724551D01*
X15790323Y30724919D01*
X15799446Y30725177D01*
X15811696Y30725345D01*
X15827497Y30725441D01*
X15847273Y30725486D01*
X15871449Y30725500D01*
X15888478Y30725501D01*
X16002892Y30725500D01*
G36*
X11174744Y29046560D02*
G01*
X10082544Y29046560D01*
X10082544Y29270080D01*
X11174744Y29270080D01*
X11174744Y29046560D01*
G37*
X11174744Y29046560D02*
X10082544Y29046560D01*
X10082544Y29270080D01*
X11174744Y29270080D01*
X11174744Y29046560D01*
G36*
X8703324Y29447880D02*
G01*
X8482344Y29447880D01*
X8482344Y30722960D01*
X8703324Y30722960D01*
X8703324Y29447880D01*
G37*
X8703324Y29447880D02*
X8482344Y29447880D01*
X8482344Y30722960D01*
X8703324Y30722960D01*
X8703324Y29447880D01*
G36*
X11800326Y29764745D02*
G01*
X11805044Y29715358D01*
X11814638Y29666609D01*
X11828912Y29618874D01*
X11847667Y29572528D01*
X11870708Y29527945D01*
X11897837Y29485500D01*
X11928857Y29445568D01*
X11963572Y29408524D01*
X12001784Y29374742D01*
X12007864Y29369934D01*
X12047962Y29341807D01*
X12091269Y29317246D01*
X12137138Y29296509D01*
X12184923Y29279853D01*
X12233978Y29267534D01*
X12283657Y29259809D01*
X12284985Y29259669D01*
X12306341Y29258188D01*
X12330936Y29257723D01*
X12357094Y29258216D01*
X12383140Y29259607D01*
X12407399Y29261839D01*
X12426964Y29264631D01*
X12477344Y29276032D01*
X12526095Y29291989D01*
X12572897Y29312278D01*
X12617430Y29336674D01*
X12659371Y29364950D01*
X12698401Y29396881D01*
X12734199Y29432243D01*
X12766445Y29470811D01*
X12794817Y29512358D01*
X12805383Y29530430D01*
X12809688Y29538134D01*
X12812901Y29543838D01*
X12814343Y29546340D01*
X12814352Y29546352D01*
X12816642Y29545411D01*
X12822890Y29542414D01*
X12832546Y29537644D01*
X12845058Y29531383D01*
X12859874Y29523913D01*
X12876442Y29515516D01*
X12894212Y29506474D01*
X12912633Y29497070D01*
X12931151Y29487586D01*
X12949216Y29478303D01*
X12966277Y29469504D01*
X12981781Y29461470D01*
X12995178Y29454485D01*
X13005916Y29448830D01*
X13013443Y29444788D01*
X13017208Y29442640D01*
X13017503Y29442426D01*
X13018266Y29440524D01*
X13017574Y29437136D01*
X13015160Y29431754D01*
X13010753Y29423870D01*
X13004085Y29412978D01*
X12994887Y29398568D01*
X12991456Y29393270D01*
X12955669Y29342753D01*
X12916157Y29295544D01*
X12873177Y29251819D01*
X12826985Y29211755D01*
X12777839Y29175527D01*
X12725995Y29143310D01*
X12671710Y29115281D01*
X12615241Y29091614D01*
X12556846Y29072487D01*
X12503310Y29059392D01*
X12482375Y29055285D01*
X12463231Y29052063D01*
X12444710Y29049613D01*
X12425645Y29047823D01*
X12404868Y29046581D01*
X12381210Y29045774D01*
X12357114Y29045335D01*
X12338889Y29045140D01*
X12321995Y29045040D01*
X12307205Y29045034D01*
X12295291Y29045120D01*
X12287027Y29045296D01*
X12283454Y29045515D01*
X12277566Y29046259D01*
X12268234Y29047370D01*
X12257062Y29048659D01*
X12251704Y29049265D01*
X12195927Y29057953D01*
X12139931Y29071426D01*
X12084325Y29089455D01*
X12029718Y29111812D01*
X11976721Y29138269D01*
X11925943Y29168599D01*
X11917694Y29174045D01*
X11887722Y29194902D01*
X11860968Y29215347D01*
X11835866Y29236683D01*
X11810851Y29260210D01*
X11795642Y29275499D01*
X11753444Y29322344D01*
X11715540Y29371821D01*
X11682010Y29423764D01*
X11652938Y29478006D01*
X11628406Y29534382D01*
X11608498Y29592726D01*
X11593295Y29652871D01*
X11585111Y29698523D01*
X11583904Y29707739D01*
X11582501Y29720190D01*
X11581011Y29734693D01*
X11579542Y29750063D01*
X11578205Y29765115D01*
X11577109Y29778666D01*
X11576362Y29789530D01*
X11576074Y29796495D01*
X11578526Y29796893D01*
X11585545Y29797262D01*
X11596616Y29797595D01*
X11611228Y29797881D01*
X11628865Y29798114D01*
X11649015Y29798283D01*
X11671165Y29798380D01*
X11687443Y29798400D01*
X11798823Y29798400D01*
X11800326Y29764745D01*
G37*
X11800326Y29764745D02*
X11805044Y29715358D01*
X11814638Y29666609D01*
X11828912Y29618874D01*
X11847667Y29572528D01*
X11870708Y29527945D01*
X11897837Y29485500D01*
X11928857Y29445568D01*
X11963572Y29408524D01*
X12001784Y29374742D01*
X12007864Y29369934D01*
X12047962Y29341807D01*
X12091269Y29317246D01*
X12137138Y29296509D01*
X12184923Y29279853D01*
X12233978Y29267534D01*
X12283657Y29259809D01*
X12284985Y29259669D01*
X12306341Y29258188D01*
X12330936Y29257723D01*
X12357094Y29258216D01*
X12383140Y29259607D01*
X12407399Y29261839D01*
X12426964Y29264631D01*
X12477344Y29276032D01*
X12526095Y29291989D01*
X12572897Y29312278D01*
X12617430Y29336674D01*
X12659371Y29364950D01*
X12698401Y29396881D01*
X12734199Y29432243D01*
X12766445Y29470811D01*
X12794817Y29512358D01*
X12805383Y29530430D01*
X12809688Y29538134D01*
X12812901Y29543838D01*
X12814343Y29546340D01*
X12814352Y29546352D01*
X12816642Y29545411D01*
X12822890Y29542414D01*
X12832546Y29537644D01*
X12845058Y29531383D01*
X12859874Y29523913D01*
X12876442Y29515516D01*
X12894212Y29506474D01*
X12912633Y29497070D01*
X12931151Y29487586D01*
X12949216Y29478303D01*
X12966277Y29469504D01*
X12981781Y29461470D01*
X12995178Y29454485D01*
X13005916Y29448830D01*
X13013443Y29444788D01*
X13017208Y29442640D01*
X13017503Y29442426D01*
X13018266Y29440524D01*
X13017574Y29437136D01*
X13015160Y29431754D01*
X13010753Y29423870D01*
X13004085Y29412978D01*
X12994887Y29398568D01*
X12991456Y29393270D01*
X12955669Y29342753D01*
X12916157Y29295544D01*
X12873177Y29251819D01*
X12826985Y29211755D01*
X12777839Y29175527D01*
X12725995Y29143310D01*
X12671710Y29115281D01*
X12615241Y29091614D01*
X12556846Y29072487D01*
X12503310Y29059392D01*
X12482375Y29055285D01*
X12463231Y29052063D01*
X12444710Y29049613D01*
X12425645Y29047823D01*
X12404868Y29046581D01*
X12381210Y29045774D01*
X12357114Y29045335D01*
X12338889Y29045140D01*
X12321995Y29045040D01*
X12307205Y29045034D01*
X12295291Y29045120D01*
X12287027Y29045296D01*
X12283454Y29045515D01*
X12277566Y29046259D01*
X12268234Y29047370D01*
X12257062Y29048659D01*
X12251704Y29049265D01*
X12195927Y29057953D01*
X12139931Y29071426D01*
X12084325Y29089455D01*
X12029718Y29111812D01*
X11976721Y29138269D01*
X11925943Y29168599D01*
X11917694Y29174045D01*
X11887722Y29194902D01*
X11860968Y29215347D01*
X11835866Y29236683D01*
X11810851Y29260210D01*
X11795642Y29275499D01*
X11753444Y29322344D01*
X11715540Y29371821D01*
X11682010Y29423764D01*
X11652938Y29478006D01*
X11628406Y29534382D01*
X11608498Y29592726D01*
X11593295Y29652871D01*
X11585111Y29698523D01*
X11583904Y29707739D01*
X11582501Y29720190D01*
X11581011Y29734693D01*
X11579542Y29750063D01*
X11578205Y29765115D01*
X11577109Y29778666D01*
X11576362Y29789530D01*
X11576074Y29796495D01*
X11578526Y29796893D01*
X11585545Y29797262D01*
X11596616Y29797595D01*
X11611228Y29797881D01*
X11628865Y29798114D01*
X11649015Y29798283D01*
X11671165Y29798380D01*
X11687443Y29798400D01*
X11798823Y29798400D01*
X11800326Y29764745D01*
G36*
X17118228Y30719908D02*
G01*
X17136774Y30719812D01*
X17250220Y30719150D01*
X16944072Y30300817D01*
X16913988Y30259702D01*
X16884711Y30219675D01*
X16856382Y30180931D01*
X16829141Y30143662D01*
X16803130Y30108060D01*
X16778490Y30074320D01*
X16755360Y30042634D01*
X16733881Y30013194D01*
X16714195Y29986194D01*
X16696442Y29961828D01*
X16680763Y29940287D01*
X16667298Y29921764D01*
X16656189Y29906454D01*
X16647575Y29894548D01*
X16641598Y29886240D01*
X16638398Y29881723D01*
X16637870Y29880913D01*
X16639331Y29878731D01*
X16643631Y29872630D01*
X16650627Y29862808D01*
X16660180Y29849459D01*
X16672148Y29832780D01*
X16686389Y29812968D01*
X16702762Y29790217D01*
X16721126Y29764725D01*
X16741340Y29736686D01*
X16763261Y29706299D01*
X16786749Y29673757D01*
X16811663Y29639258D01*
X16837862Y29602997D01*
X16865203Y29565171D01*
X16893546Y29525975D01*
X16922749Y29485605D01*
X16934595Y29469234D01*
X16964114Y29428436D01*
X16992837Y29388726D01*
X17020623Y29350299D01*
X17047329Y29313353D01*
X17072813Y29278084D01*
X17096934Y29244690D01*
X17119550Y29213365D01*
X17140519Y29184308D01*
X17159699Y29157715D01*
X17176949Y29133782D01*
X17192126Y29112707D01*
X17205088Y29094685D01*
X17215694Y29079914D01*
X17223802Y29068589D01*
X17229270Y29060909D01*
X17231957Y29057068D01*
X17232220Y29056653D01*
X17229940Y29056019D01*
X17222746Y29055478D01*
X17210802Y29055031D01*
X17194273Y29054683D01*
X17173324Y29054437D01*
X17148120Y29054297D01*
X17119190Y29054266D01*
X17005314Y29054351D01*
X16764014Y29388220D01*
X16737450Y29424963D01*
X16711689Y29460574D01*
X16686889Y29494837D01*
X16663207Y29527534D01*
X16640800Y29558450D01*
X16619826Y29587368D01*
X16600441Y29614071D01*
X16582804Y29638342D01*
X16567071Y29659966D01*
X16553399Y29678726D01*
X16541947Y29694404D01*
X16532872Y29706785D01*
X16526330Y29715653D01*
X16522480Y29720789D01*
X16521444Y29722067D01*
X16519830Y29720050D01*
X16515379Y29714146D01*
X16508248Y29704573D01*
X16498598Y29691545D01*
X16486585Y29675278D01*
X16472371Y29655990D01*
X16456112Y29633894D01*
X16437968Y29609209D01*
X16418097Y29582149D01*
X16396658Y29552930D01*
X16373811Y29521769D01*
X16349713Y29488881D01*
X16324524Y29454482D01*
X16298401Y29418789D01*
X16277604Y29390356D01*
X16250849Y29353786D01*
X16224889Y29318333D01*
X16199885Y29284214D01*
X16175996Y29251645D01*
X16153382Y29220844D01*
X16132203Y29192027D01*
X16112617Y29165411D01*
X16094787Y29141213D01*
X16078870Y29119650D01*
X16065026Y29100939D01*
X16053417Y29085296D01*
X16044200Y29072939D01*
X16037537Y29064084D01*
X16033586Y29058949D01*
X16032494Y29057665D01*
X16029498Y29057471D01*
X16021949Y29057320D01*
X16010374Y29057211D01*
X15995299Y29057147D01*
X15977251Y29057130D01*
X15956757Y29057161D01*
X15934343Y29057241D01*
X15917572Y29057328D01*
X15805191Y29057990D01*
X16411149Y29886030D01*
X16453641Y29944093D01*
X16495381Y30001122D01*
X16536267Y30056981D01*
X16576200Y30111531D01*
X16615078Y30164637D01*
X16652802Y30216161D01*
X16689271Y30265964D01*
X16724383Y30313911D01*
X16758039Y30359864D01*
X16790138Y30403686D01*
X16820579Y30445239D01*
X16849262Y30484386D01*
X16876086Y30520989D01*
X16900951Y30554913D01*
X16923756Y30586019D01*
X16944401Y30614169D01*
X16962784Y30639228D01*
X16978806Y30661057D01*
X16992365Y30679519D01*
X17003361Y30694478D01*
X17011695Y30705795D01*
X17017264Y30713333D01*
X17019969Y30716956D01*
X17020218Y30717272D01*
X17022053Y30718064D01*
X17026117Y30718708D01*
X17032784Y30719211D01*
X17042428Y30719582D01*
X17055421Y30719829D01*
X17072136Y30719961D01*
X17092948Y30719984D01*
X17118228Y30719908D01*
G37*
X17118228Y30719908D02*
X17136774Y30719812D01*
X17250220Y30719150D01*
X16944072Y30300817D01*
X16913988Y30259702D01*
X16884711Y30219675D01*
X16856382Y30180931D01*
X16829141Y30143662D01*
X16803130Y30108060D01*
X16778490Y30074320D01*
X16755360Y30042634D01*
X16733881Y30013194D01*
X16714195Y29986194D01*
X16696442Y29961828D01*
X16680763Y29940287D01*
X16667298Y29921764D01*
X16656189Y29906454D01*
X16647575Y29894548D01*
X16641598Y29886240D01*
X16638398Y29881723D01*
X16637870Y29880913D01*
X16639331Y29878731D01*
X16643631Y29872630D01*
X16650627Y29862808D01*
X16660180Y29849459D01*
X16672148Y29832780D01*
X16686389Y29812968D01*
X16702762Y29790217D01*
X16721126Y29764725D01*
X16741340Y29736686D01*
X16763261Y29706299D01*
X16786749Y29673757D01*
X16811663Y29639258D01*
X16837862Y29602997D01*
X16865203Y29565171D01*
X16893546Y29525975D01*
X16922749Y29485605D01*
X16934595Y29469234D01*
X16964114Y29428436D01*
X16992837Y29388726D01*
X17020623Y29350299D01*
X17047329Y29313353D01*
X17072813Y29278084D01*
X17096934Y29244690D01*
X17119550Y29213365D01*
X17140519Y29184308D01*
X17159699Y29157715D01*
X17176949Y29133782D01*
X17192126Y29112707D01*
X17205088Y29094685D01*
X17215694Y29079914D01*
X17223802Y29068589D01*
X17229270Y29060909D01*
X17231957Y29057068D01*
X17232220Y29056653D01*
X17229940Y29056019D01*
X17222746Y29055478D01*
X17210802Y29055031D01*
X17194273Y29054683D01*
X17173324Y29054437D01*
X17148120Y29054297D01*
X17119190Y29054266D01*
X17005314Y29054351D01*
X16764014Y29388220D01*
X16737450Y29424963D01*
X16711689Y29460574D01*
X16686889Y29494837D01*
X16663207Y29527534D01*
X16640800Y29558450D01*
X16619826Y29587368D01*
X16600441Y29614071D01*
X16582804Y29638342D01*
X16567071Y29659966D01*
X16553399Y29678726D01*
X16541947Y29694404D01*
X16532872Y29706785D01*
X16526330Y29715653D01*
X16522480Y29720789D01*
X16521444Y29722067D01*
X16519830Y29720050D01*
X16515379Y29714146D01*
X16508248Y29704573D01*
X16498598Y29691545D01*
X16486585Y29675278D01*
X16472371Y29655990D01*
X16456112Y29633894D01*
X16437968Y29609209D01*
X16418097Y29582149D01*
X16396658Y29552930D01*
X16373811Y29521769D01*
X16349713Y29488881D01*
X16324524Y29454482D01*
X16298401Y29418789D01*
X16277604Y29390356D01*
X16250849Y29353786D01*
X16224889Y29318333D01*
X16199885Y29284214D01*
X16175996Y29251645D01*
X16153382Y29220844D01*
X16132203Y29192027D01*
X16112617Y29165411D01*
X16094787Y29141213D01*
X16078870Y29119650D01*
X16065026Y29100939D01*
X16053417Y29085296D01*
X16044200Y29072939D01*
X16037537Y29064084D01*
X16033586Y29058949D01*
X16032494Y29057665D01*
X16029498Y29057471D01*
X16021949Y29057320D01*
X16010374Y29057211D01*
X15995299Y29057147D01*
X15977251Y29057130D01*
X15956757Y29057161D01*
X15934343Y29057241D01*
X15917572Y29057328D01*
X15805191Y29057990D01*
X16411149Y29886030D01*
X16453641Y29944093D01*
X16495381Y30001122D01*
X16536267Y30056981D01*
X16576200Y30111531D01*
X16615078Y30164637D01*
X16652802Y30216161D01*
X16689271Y30265964D01*
X16724383Y30313911D01*
X16758039Y30359864D01*
X16790138Y30403686D01*
X16820579Y30445239D01*
X16849262Y30484386D01*
X16876086Y30520989D01*
X16900951Y30554913D01*
X16923756Y30586019D01*
X16944401Y30614169D01*
X16962784Y30639228D01*
X16978806Y30661057D01*
X16992365Y30679519D01*
X17003361Y30694478D01*
X17011695Y30705795D01*
X17017264Y30713333D01*
X17019969Y30716956D01*
X17020218Y30717272D01*
X17022053Y30718064D01*
X17026117Y30718708D01*
X17032784Y30719211D01*
X17042428Y30719582D01*
X17055421Y30719829D01*
X17072136Y30719961D01*
X17092948Y30719984D01*
X17118228Y30719908D01*
G36*
X11174744Y30512140D02*
G01*
X10300984Y30512140D01*
X10300984Y30199720D01*
X10077464Y30199720D01*
X10077464Y30733120D01*
X11174744Y30733120D01*
X11174744Y30512140D01*
G37*
X11174744Y30512140D02*
X10300984Y30512140D01*
X10300984Y30199720D01*
X10077464Y30199720D01*
X10077464Y30733120D01*
X11174744Y30733120D01*
X11174744Y30512140D01*
G36*
X14692644Y30504520D02*
G01*
X13323584Y30504520D01*
X13323584Y30725500D01*
X14692644Y30725500D01*
X14692644Y30504520D01*
G37*
X14692644Y30504520D02*
X13323584Y30504520D01*
X13323584Y30725500D01*
X14692644Y30725500D01*
X14692644Y30504520D01*
G36*
X11060444Y29790780D02*
G01*
X10300984Y29790780D01*
X10300984Y29447880D01*
X10080004Y29447880D01*
X10080004Y30014300D01*
X11060444Y30014300D01*
X11060444Y29790780D01*
G37*
X11060444Y29790780D02*
X10300984Y29790780D01*
X10300984Y29447880D01*
X10080004Y29447880D01*
X10080004Y30014300D01*
X11060444Y30014300D01*
X11060444Y29790780D01*
G36*
X9630424Y29046560D02*
G01*
X8482344Y29046560D01*
X8482344Y29270080D01*
X9630424Y29270080D01*
X9630424Y29046560D01*
G37*
X9630424Y29046560D02*
X8482344Y29046560D01*
X8482344Y29270080D01*
X9630424Y29270080D01*
X9630424Y29046560D01*
G36*
X14113524Y29054180D02*
G01*
X13892544Y29054180D01*
X13892544Y30336880D01*
X14113524Y30336880D01*
X14113524Y29054180D01*
G37*
X14113524Y29054180D02*
X13892544Y29054180D01*
X13892544Y30336880D01*
X14113524Y30336880D01*
X14113524Y29054180D01*
G36*
X12368133Y30728885D02*
G01*
X12389873Y30728102D01*
X12408400Y30726865D01*
X12416804Y30725987D01*
X12478460Y30715889D01*
X12538406Y30701142D01*
X12596426Y30681880D01*
X12652304Y30658240D01*
X12705825Y30630358D01*
X12756774Y30598368D01*
X12804936Y30562408D01*
X12850095Y30522612D01*
X12892035Y30479116D01*
X12930541Y30432056D01*
X12965399Y30381567D01*
X12966677Y30379538D01*
X12972874Y30369396D01*
X12977797Y30360824D01*
X12980956Y30354716D01*
X12981857Y30351966D01*
X12981851Y30351954D01*
X12979540Y30350206D01*
X12973508Y30346064D01*
X12964300Y30339884D01*
X12952465Y30332024D01*
X12938551Y30322841D01*
X12923105Y30312692D01*
X12906674Y30301934D01*
X12889807Y30290925D01*
X12873051Y30280021D01*
X12856953Y30269581D01*
X12842062Y30259961D01*
X12828924Y30251518D01*
X12818089Y30244610D01*
X12810102Y30239593D01*
X12805512Y30236826D01*
X12804718Y30236416D01*
X12801892Y30237282D01*
X12797829Y30241905D01*
X12792229Y30250661D01*
X12789108Y30256086D01*
X12772013Y30283572D01*
X12751351Y30311998D01*
X12728153Y30340148D01*
X12703452Y30366803D01*
X12678280Y30390746D01*
X12666404Y30400860D01*
X12625770Y30430828D01*
X12582171Y30456873D01*
X12536120Y30478774D01*
X12488132Y30496310D01*
X12438721Y30509260D01*
X12398376Y30516187D01*
X12376870Y30518232D01*
X12352145Y30519278D01*
X12325684Y30519363D01*
X12298969Y30518520D01*
X12273481Y30516786D01*
X12250703Y30514196D01*
X12239750Y30512397D01*
X12189210Y30500392D01*
X12140699Y30483901D01*
X12094458Y30463143D01*
X12050728Y30438334D01*
X12009750Y30409692D01*
X11971765Y30377434D01*
X11937014Y30341777D01*
X11905738Y30302938D01*
X11878176Y30261136D01*
X11854572Y30216587D01*
X11835164Y30169508D01*
X11825123Y30138379D01*
X11814480Y30093948D01*
X11807852Y30047895D01*
X11805356Y30009855D01*
X11803952Y29968580D01*
X11582955Y29968580D01*
X11584431Y30013665D01*
X11588875Y30073235D01*
X11598163Y30131781D01*
X11612120Y30189055D01*
X11630567Y30244808D01*
X11653329Y30298794D01*
X11680230Y30350761D01*
X11711092Y30400463D01*
X11745740Y30447651D01*
X11783997Y30492077D01*
X11825686Y30533490D01*
X11870632Y30571645D01*
X11918657Y30606291D01*
X11969585Y30637180D01*
X12023240Y30664064D01*
X12056124Y30677954D01*
X12109001Y30696535D01*
X12163713Y30711237D01*
X12221129Y30722284D01*
X12236464Y30724566D01*
X12252643Y30726312D01*
X12272706Y30727661D01*
X12295468Y30728601D01*
X12319749Y30729125D01*
X12344365Y30729223D01*
X12368133Y30728885D01*
G37*
X12368133Y30728885D02*
X12389873Y30728102D01*
X12408400Y30726865D01*
X12416804Y30725987D01*
X12478460Y30715889D01*
X12538406Y30701142D01*
X12596426Y30681880D01*
X12652304Y30658240D01*
X12705825Y30630358D01*
X12756774Y30598368D01*
X12804936Y30562408D01*
X12850095Y30522612D01*
X12892035Y30479116D01*
X12930541Y30432056D01*
X12965399Y30381567D01*
X12966677Y30379538D01*
X12972874Y30369396D01*
X12977797Y30360824D01*
X12980956Y30354716D01*
X12981857Y30351966D01*
X12981851Y30351954D01*
X12979540Y30350206D01*
X12973508Y30346064D01*
X12964300Y30339884D01*
X12952465Y30332024D01*
X12938551Y30322841D01*
X12923105Y30312692D01*
X12906674Y30301934D01*
X12889807Y30290925D01*
X12873051Y30280021D01*
X12856953Y30269581D01*
X12842062Y30259961D01*
X12828924Y30251518D01*
X12818089Y30244610D01*
X12810102Y30239593D01*
X12805512Y30236826D01*
X12804718Y30236416D01*
X12801892Y30237282D01*
X12797829Y30241905D01*
X12792229Y30250661D01*
X12789108Y30256086D01*
X12772013Y30283572D01*
X12751351Y30311998D01*
X12728153Y30340148D01*
X12703452Y30366803D01*
X12678280Y30390746D01*
X12666404Y30400860D01*
X12625770Y30430828D01*
X12582171Y30456873D01*
X12536120Y30478774D01*
X12488132Y30496310D01*
X12438721Y30509260D01*
X12398376Y30516187D01*
X12376870Y30518232D01*
X12352145Y30519278D01*
X12325684Y30519363D01*
X12298969Y30518520D01*
X12273481Y30516786D01*
X12250703Y30514196D01*
X12239750Y30512397D01*
X12189210Y30500392D01*
X12140699Y30483901D01*
X12094458Y30463143D01*
X12050728Y30438334D01*
X12009750Y30409692D01*
X11971765Y30377434D01*
X11937014Y30341777D01*
X11905738Y30302938D01*
X11878176Y30261136D01*
X11854572Y30216587D01*
X11835164Y30169508D01*
X11825123Y30138379D01*
X11814480Y30093948D01*
X11807852Y30047895D01*
X11805356Y30009855D01*
X11803952Y29968580D01*
X11582955Y29968580D01*
X11584431Y30013665D01*
X11588875Y30073235D01*
X11598163Y30131781D01*
X11612120Y30189055D01*
X11630567Y30244808D01*
X11653329Y30298794D01*
X11680230Y30350761D01*
X11711092Y30400463D01*
X11745740Y30447651D01*
X11783997Y30492077D01*
X11825686Y30533490D01*
X11870632Y30571645D01*
X11918657Y30606291D01*
X11969585Y30637180D01*
X12023240Y30664064D01*
X12056124Y30677954D01*
X12109001Y30696535D01*
X12163713Y30711237D01*
X12221129Y30722284D01*
X12236464Y30724566D01*
X12252643Y30726312D01*
X12272706Y30727661D01*
X12295468Y30728601D01*
X12319749Y30729125D01*
X12344365Y30729223D01*
X12368133Y30728885D01*
G36*
X15360664Y29054180D02*
G01*
X15139684Y29054180D01*
X15139684Y30725500D01*
X15360664Y30725500D01*
X15360664Y29054180D01*
G37*
X15360664Y29054180D02*
X15139684Y29054180D01*
X15139684Y30725500D01*
X15360664Y30725500D01*
X15360664Y29054180D01*
G36*
X16002892Y30725500D02*
G01*
X16208193Y30442956D01*
X16232723Y30409165D01*
X16256417Y30376463D01*
X16279104Y30345091D01*
X16300613Y30315286D01*
X16320772Y30287289D01*
X16339411Y30261337D01*
X16356359Y30237671D01*
X16371444Y30216530D01*
X16384495Y30198152D01*
X16395342Y30182777D01*
X16403813Y30170644D01*
X16409738Y30161991D01*
X16412945Y30157058D01*
X16413494Y30155979D01*
X16412053Y30152999D01*
X16408001Y30146561D01*
X16401741Y30137221D01*
X16393679Y30125539D01*
X16384217Y30112072D01*
X16373762Y30097378D01*
X16362717Y30082016D01*
X16351486Y30066543D01*
X16340475Y30051517D01*
X16330086Y30037496D01*
X16320725Y30025038D01*
X16312796Y30014702D01*
X16306703Y30007045D01*
X16302851Y30002625D01*
X16301734Y30001753D01*
X16299995Y30003777D01*
X16295428Y30009705D01*
X16288188Y30019329D01*
X16278426Y30032439D01*
X16266297Y30048826D01*
X16251953Y30068281D01*
X16235549Y30090595D01*
X16217237Y30115558D01*
X16197171Y30142963D01*
X16175503Y30172598D01*
X16152389Y30204257D01*
X16127980Y30237728D01*
X16102430Y30272804D01*
X16075892Y30309276D01*
X16048520Y30346933D01*
X16040114Y30358507D01*
X16012482Y30396555D01*
X15985631Y30433532D01*
X15959713Y30469228D01*
X15934884Y30503428D01*
X15911298Y30535919D01*
X15889110Y30566489D01*
X15868473Y30594925D01*
X15849542Y30621015D01*
X15832472Y30644544D01*
X15817417Y30665301D01*
X15804532Y30683073D01*
X15793971Y30697646D01*
X15785888Y30708808D01*
X15780438Y30716346D01*
X15777775Y30720048D01*
X15777549Y30720370D01*
X15776801Y30721583D01*
X15776639Y30722588D01*
X15777487Y30723405D01*
X15779768Y30724053D01*
X15783905Y30724551D01*
X15790323Y30724919D01*
X15799446Y30725177D01*
X15811696Y30725345D01*
X15827497Y30725441D01*
X15847273Y30725486D01*
X15871449Y30725500D01*
X15888478Y30725501D01*
X16002892Y30725500D01*
G37*
X16002892Y30725500D02*
X16208193Y30442956D01*
X16232723Y30409165D01*
X16256417Y30376463D01*
X16279104Y30345091D01*
X16300613Y30315286D01*
X16320772Y30287289D01*
X16339411Y30261337D01*
X16356359Y30237671D01*
X16371444Y30216530D01*
X16384495Y30198152D01*
X16395342Y30182777D01*
X16403813Y30170644D01*
X16409738Y30161991D01*
X16412945Y30157058D01*
X16413494Y30155979D01*
X16412053Y30152999D01*
X16408001Y30146561D01*
X16401741Y30137221D01*
X16393679Y30125539D01*
X16384217Y30112072D01*
X16373762Y30097378D01*
X16362717Y30082016D01*
X16351486Y30066543D01*
X16340475Y30051517D01*
X16330086Y30037496D01*
X16320725Y30025038D01*
X16312796Y30014702D01*
X16306703Y30007045D01*
X16302851Y30002625D01*
X16301734Y30001753D01*
X16299995Y30003777D01*
X16295428Y30009705D01*
X16288188Y30019329D01*
X16278426Y30032439D01*
X16266297Y30048826D01*
X16251953Y30068281D01*
X16235549Y30090595D01*
X16217237Y30115558D01*
X16197171Y30142963D01*
X16175503Y30172598D01*
X16152389Y30204257D01*
X16127980Y30237728D01*
X16102430Y30272804D01*
X16075892Y30309276D01*
X16048520Y30346933D01*
X16040114Y30358507D01*
X16012482Y30396555D01*
X15985631Y30433532D01*
X15959713Y30469228D01*
X15934884Y30503428D01*
X15911298Y30535919D01*
X15889110Y30566489D01*
X15868473Y30594925D01*
X15849542Y30621015D01*
X15832472Y30644544D01*
X15817417Y30665301D01*
X15804532Y30683073D01*
X15793971Y30697646D01*
X15785888Y30708808D01*
X15780438Y30716346D01*
X15777775Y30720048D01*
X15777549Y30720370D01*
X15776801Y30721583D01*
X15776639Y30722588D01*
X15777487Y30723405D01*
X15779768Y30724053D01*
X15783905Y30724551D01*
X15790323Y30724919D01*
X15799446Y30725177D01*
X15811696Y30725345D01*
X15827497Y30725441D01*
X15847273Y30725486D01*
X15871449Y30725500D01*
X15888478Y30725501D01*
X16002892Y30725500D01*
G36*
X11174744Y29046560D02*
G01*
X10082544Y29046560D01*
X10082544Y29270080D01*
X11174744Y29270080D01*
X11174744Y29046560D01*
G37*
X11174744Y29046560D02*
X10082544Y29046560D01*
X10082544Y29270080D01*
X11174744Y29270080D01*
X11174744Y29046560D01*
G36*
X8703324Y29447880D02*
G01*
X8482344Y29447880D01*
X8482344Y30722960D01*
X8703324Y30722960D01*
X8703324Y29447880D01*
G37*
X8703324Y29447880D02*
X8482344Y29447880D01*
X8482344Y30722960D01*
X8703324Y30722960D01*
X8703324Y29447880D01*
G36*
X11800326Y29764745D02*
G01*
X11805044Y29715358D01*
X11814638Y29666609D01*
X11828912Y29618874D01*
X11847667Y29572528D01*
X11870708Y29527945D01*
X11897837Y29485500D01*
X11928857Y29445568D01*
X11963572Y29408524D01*
X12001784Y29374742D01*
X12007864Y29369934D01*
X12047962Y29341807D01*
X12091269Y29317246D01*
X12137138Y29296509D01*
X12184923Y29279853D01*
X12233978Y29267534D01*
X12283657Y29259809D01*
X12284985Y29259669D01*
X12306341Y29258188D01*
X12330936Y29257723D01*
X12357094Y29258216D01*
X12383140Y29259607D01*
X12407399Y29261839D01*
X12426964Y29264631D01*
X12477344Y29276032D01*
X12526095Y29291989D01*
X12572897Y29312278D01*
X12617430Y29336674D01*
X12659371Y29364950D01*
X12698401Y29396881D01*
X12734199Y29432243D01*
X12766445Y29470811D01*
X12794817Y29512358D01*
X12805383Y29530430D01*
X12809688Y29538134D01*
X12812901Y29543838D01*
X12814343Y29546340D01*
X12814352Y29546352D01*
X12816642Y29545411D01*
X12822890Y29542414D01*
X12832546Y29537644D01*
X12845058Y29531383D01*
X12859874Y29523913D01*
X12876442Y29515516D01*
X12894212Y29506474D01*
X12912633Y29497070D01*
X12931151Y29487586D01*
X12949216Y29478303D01*
X12966277Y29469504D01*
X12981781Y29461470D01*
X12995178Y29454485D01*
X13005916Y29448830D01*
X13013443Y29444788D01*
X13017208Y29442640D01*
X13017503Y29442426D01*
X13018266Y29440524D01*
X13017574Y29437136D01*
X13015160Y29431754D01*
X13010753Y29423870D01*
X13004085Y29412978D01*
X12994887Y29398568D01*
X12991456Y29393270D01*
X12955669Y29342753D01*
X12916157Y29295544D01*
X12873177Y29251819D01*
X12826985Y29211755D01*
X12777839Y29175527D01*
X12725995Y29143310D01*
X12671710Y29115281D01*
X12615241Y29091614D01*
X12556846Y29072487D01*
X12503310Y29059392D01*
X12482375Y29055285D01*
X12463231Y29052063D01*
X12444710Y29049613D01*
X12425645Y29047823D01*
X12404868Y29046581D01*
X12381210Y29045774D01*
X12357114Y29045335D01*
X12338889Y29045140D01*
X12321995Y29045040D01*
X12307205Y29045034D01*
X12295291Y29045120D01*
X12287027Y29045296D01*
X12283454Y29045515D01*
X12277566Y29046259D01*
X12268234Y29047370D01*
X12257062Y29048659D01*
X12251704Y29049265D01*
X12195927Y29057953D01*
X12139931Y29071426D01*
X12084325Y29089455D01*
X12029718Y29111812D01*
X11976721Y29138269D01*
X11925943Y29168599D01*
X11917694Y29174045D01*
X11887722Y29194902D01*
X11860968Y29215347D01*
X11835866Y29236683D01*
X11810851Y29260210D01*
X11795642Y29275499D01*
X11753444Y29322344D01*
X11715540Y29371821D01*
X11682010Y29423764D01*
X11652938Y29478006D01*
X11628406Y29534382D01*
X11608498Y29592726D01*
X11593295Y29652871D01*
X11585111Y29698523D01*
X11583904Y29707739D01*
X11582501Y29720190D01*
X11581011Y29734693D01*
X11579542Y29750063D01*
X11578205Y29765115D01*
X11577109Y29778666D01*
X11576362Y29789530D01*
X11576074Y29796495D01*
X11578526Y29796893D01*
X11585545Y29797262D01*
X11596616Y29797595D01*
X11611228Y29797881D01*
X11628865Y29798114D01*
X11649015Y29798283D01*
X11671165Y29798380D01*
X11687443Y29798400D01*
X11798823Y29798400D01*
X11800326Y29764745D01*
G37*
X11800326Y29764745D02*
X11805044Y29715358D01*
X11814638Y29666609D01*
X11828912Y29618874D01*
X11847667Y29572528D01*
X11870708Y29527945D01*
X11897837Y29485500D01*
X11928857Y29445568D01*
X11963572Y29408524D01*
X12001784Y29374742D01*
X12007864Y29369934D01*
X12047962Y29341807D01*
X12091269Y29317246D01*
X12137138Y29296509D01*
X12184923Y29279853D01*
X12233978Y29267534D01*
X12283657Y29259809D01*
X12284985Y29259669D01*
X12306341Y29258188D01*
X12330936Y29257723D01*
X12357094Y29258216D01*
X12383140Y29259607D01*
X12407399Y29261839D01*
X12426964Y29264631D01*
X12477344Y29276032D01*
X12526095Y29291989D01*
X12572897Y29312278D01*
X12617430Y29336674D01*
X12659371Y29364950D01*
X12698401Y29396881D01*
X12734199Y29432243D01*
X12766445Y29470811D01*
X12794817Y29512358D01*
X12805383Y29530430D01*
X12809688Y29538134D01*
X12812901Y29543838D01*
X12814343Y29546340D01*
X12814352Y29546352D01*
X12816642Y29545411D01*
X12822890Y29542414D01*
X12832546Y29537644D01*
X12845058Y29531383D01*
X12859874Y29523913D01*
X12876442Y29515516D01*
X12894212Y29506474D01*
X12912633Y29497070D01*
X12931151Y29487586D01*
X12949216Y29478303D01*
X12966277Y29469504D01*
X12981781Y29461470D01*
X12995178Y29454485D01*
X13005916Y29448830D01*
X13013443Y29444788D01*
X13017208Y29442640D01*
X13017503Y29442426D01*
X13018266Y29440524D01*
X13017574Y29437136D01*
X13015160Y29431754D01*
X13010753Y29423870D01*
X13004085Y29412978D01*
X12994887Y29398568D01*
X12991456Y29393270D01*
X12955669Y29342753D01*
X12916157Y29295544D01*
X12873177Y29251819D01*
X12826985Y29211755D01*
X12777839Y29175527D01*
X12725995Y29143310D01*
X12671710Y29115281D01*
X12615241Y29091614D01*
X12556846Y29072487D01*
X12503310Y29059392D01*
X12482375Y29055285D01*
X12463231Y29052063D01*
X12444710Y29049613D01*
X12425645Y29047823D01*
X12404868Y29046581D01*
X12381210Y29045774D01*
X12357114Y29045335D01*
X12338889Y29045140D01*
X12321995Y29045040D01*
X12307205Y29045034D01*
X12295291Y29045120D01*
X12287027Y29045296D01*
X12283454Y29045515D01*
X12277566Y29046259D01*
X12268234Y29047370D01*
X12257062Y29048659D01*
X12251704Y29049265D01*
X12195927Y29057953D01*
X12139931Y29071426D01*
X12084325Y29089455D01*
X12029718Y29111812D01*
X11976721Y29138269D01*
X11925943Y29168599D01*
X11917694Y29174045D01*
X11887722Y29194902D01*
X11860968Y29215347D01*
X11835866Y29236683D01*
X11810851Y29260210D01*
X11795642Y29275499D01*
X11753444Y29322344D01*
X11715540Y29371821D01*
X11682010Y29423764D01*
X11652938Y29478006D01*
X11628406Y29534382D01*
X11608498Y29592726D01*
X11593295Y29652871D01*
X11585111Y29698523D01*
X11583904Y29707739D01*
X11582501Y29720190D01*
X11581011Y29734693D01*
X11579542Y29750063D01*
X11578205Y29765115D01*
X11577109Y29778666D01*
X11576362Y29789530D01*
X11576074Y29796495D01*
X11578526Y29796893D01*
X11585545Y29797262D01*
X11596616Y29797595D01*
X11611228Y29797881D01*
X11628865Y29798114D01*
X11649015Y29798283D01*
X11671165Y29798380D01*
X11687443Y29798400D01*
X11798823Y29798400D01*
X11800326Y29764745D01*
G36*
X17118228Y30719908D02*
G01*
X17136774Y30719812D01*
X17250220Y30719150D01*
X16944072Y30300817D01*
X16913988Y30259702D01*
X16884711Y30219675D01*
X16856382Y30180931D01*
X16829141Y30143662D01*
X16803130Y30108060D01*
X16778490Y30074320D01*
X16755360Y30042634D01*
X16733881Y30013194D01*
X16714195Y29986194D01*
X16696442Y29961828D01*
X16680763Y29940287D01*
X16667298Y29921764D01*
X16656189Y29906454D01*
X16647575Y29894548D01*
X16641598Y29886240D01*
X16638398Y29881723D01*
X16637870Y29880913D01*
X16639331Y29878731D01*
X16643631Y29872630D01*
X16650627Y29862808D01*
X16660180Y29849459D01*
X16672148Y29832780D01*
X16686389Y29812968D01*
X16702762Y29790217D01*
X16721126Y29764725D01*
X16741340Y29736686D01*
X16763261Y29706299D01*
X16786749Y29673757D01*
X16811663Y29639258D01*
X16837862Y29602997D01*
X16865203Y29565171D01*
X16893546Y29525975D01*
X16922749Y29485605D01*
X16934595Y29469234D01*
X16964114Y29428436D01*
X16992837Y29388726D01*
X17020623Y29350299D01*
X17047329Y29313353D01*
X17072813Y29278084D01*
X17096934Y29244690D01*
X17119550Y29213365D01*
X17140519Y29184308D01*
X17159699Y29157715D01*
X17176949Y29133782D01*
X17192126Y29112707D01*
X17205088Y29094685D01*
X17215694Y29079914D01*
X17223802Y29068589D01*
X17229270Y29060909D01*
X17231957Y29057068D01*
X17232220Y29056653D01*
X17229940Y29056019D01*
X17222746Y29055478D01*
X17210802Y29055031D01*
X17194273Y29054683D01*
X17173324Y29054437D01*
X17148120Y29054297D01*
X17119190Y29054266D01*
X17005314Y29054351D01*
X16764014Y29388220D01*
X16737450Y29424963D01*
X16711689Y29460574D01*
X16686889Y29494837D01*
X16663207Y29527534D01*
X16640800Y29558450D01*
X16619826Y29587368D01*
X16600441Y29614071D01*
X16582804Y29638342D01*
X16567071Y29659966D01*
X16553399Y29678726D01*
X16541947Y29694404D01*
X16532872Y29706785D01*
X16526330Y29715653D01*
X16522480Y29720789D01*
X16521444Y29722067D01*
X16519830Y29720050D01*
X16515379Y29714146D01*
X16508248Y29704573D01*
X16498598Y29691545D01*
X16486585Y29675278D01*
X16472371Y29655990D01*
X16456112Y29633894D01*
X16437968Y29609209D01*
X16418097Y29582149D01*
X16396658Y29552930D01*
X16373811Y29521769D01*
X16349713Y29488881D01*
X16324524Y29454482D01*
X16298401Y29418789D01*
X16277604Y29390356D01*
X16250849Y29353786D01*
X16224889Y29318333D01*
X16199885Y29284214D01*
X16175996Y29251645D01*
X16153382Y29220844D01*
X16132203Y29192027D01*
X16112617Y29165411D01*
X16094787Y29141213D01*
X16078870Y29119650D01*
X16065026Y29100939D01*
X16053417Y29085296D01*
X16044200Y29072939D01*
X16037537Y29064084D01*
X16033586Y29058949D01*
X16032494Y29057665D01*
X16029498Y29057471D01*
X16021949Y29057320D01*
X16010374Y29057211D01*
X15995299Y29057147D01*
X15977251Y29057130D01*
X15956757Y29057161D01*
X15934343Y29057241D01*
X15917572Y29057328D01*
X15805191Y29057990D01*
X16411149Y29886030D01*
X16453641Y29944093D01*
X16495381Y30001122D01*
X16536267Y30056981D01*
X16576200Y30111531D01*
X16615078Y30164637D01*
X16652802Y30216161D01*
X16689271Y30265964D01*
X16724383Y30313911D01*
X16758039Y30359864D01*
X16790138Y30403686D01*
X16820579Y30445239D01*
X16849262Y30484386D01*
X16876086Y30520989D01*
X16900951Y30554913D01*
X16923756Y30586019D01*
X16944401Y30614169D01*
X16962784Y30639228D01*
X16978806Y30661057D01*
X16992365Y30679519D01*
X17003361Y30694478D01*
X17011695Y30705795D01*
X17017264Y30713333D01*
X17019969Y30716956D01*
X17020218Y30717272D01*
X17022053Y30718064D01*
X17026117Y30718708D01*
X17032784Y30719211D01*
X17042428Y30719582D01*
X17055421Y30719829D01*
X17072136Y30719961D01*
X17092948Y30719984D01*
X17118228Y30719908D01*
G37*
X17118228Y30719908D02*
X17136774Y30719812D01*
X17250220Y30719150D01*
X16944072Y30300817D01*
X16913988Y30259702D01*
X16884711Y30219675D01*
X16856382Y30180931D01*
X16829141Y30143662D01*
X16803130Y30108060D01*
X16778490Y30074320D01*
X16755360Y30042634D01*
X16733881Y30013194D01*
X16714195Y29986194D01*
X16696442Y29961828D01*
X16680763Y29940287D01*
X16667298Y29921764D01*
X16656189Y29906454D01*
X16647575Y29894548D01*
X16641598Y29886240D01*
X16638398Y29881723D01*
X16637870Y29880913D01*
X16639331Y29878731D01*
X16643631Y29872630D01*
X16650627Y29862808D01*
X16660180Y29849459D01*
X16672148Y29832780D01*
X16686389Y29812968D01*
X16702762Y29790217D01*
X16721126Y29764725D01*
X16741340Y29736686D01*
X16763261Y29706299D01*
X16786749Y29673757D01*
X16811663Y29639258D01*
X16837862Y29602997D01*
X16865203Y29565171D01*
X16893546Y29525975D01*
X16922749Y29485605D01*
X16934595Y29469234D01*
X16964114Y29428436D01*
X16992837Y29388726D01*
X17020623Y29350299D01*
X17047329Y29313353D01*
X17072813Y29278084D01*
X17096934Y29244690D01*
X17119550Y29213365D01*
X17140519Y29184308D01*
X17159699Y29157715D01*
X17176949Y29133782D01*
X17192126Y29112707D01*
X17205088Y29094685D01*
X17215694Y29079914D01*
X17223802Y29068589D01*
X17229270Y29060909D01*
X17231957Y29057068D01*
X17232220Y29056653D01*
X17229940Y29056019D01*
X17222746Y29055478D01*
X17210802Y29055031D01*
X17194273Y29054683D01*
X17173324Y29054437D01*
X17148120Y29054297D01*
X17119190Y29054266D01*
X17005314Y29054351D01*
X16764014Y29388220D01*
X16737450Y29424963D01*
X16711689Y29460574D01*
X16686889Y29494837D01*
X16663207Y29527534D01*
X16640800Y29558450D01*
X16619826Y29587368D01*
X16600441Y29614071D01*
X16582804Y29638342D01*
X16567071Y29659966D01*
X16553399Y29678726D01*
X16541947Y29694404D01*
X16532872Y29706785D01*
X16526330Y29715653D01*
X16522480Y29720789D01*
X16521444Y29722067D01*
X16519830Y29720050D01*
X16515379Y29714146D01*
X16508248Y29704573D01*
X16498598Y29691545D01*
X16486585Y29675278D01*
X16472371Y29655990D01*
X16456112Y29633894D01*
X16437968Y29609209D01*
X16418097Y29582149D01*
X16396658Y29552930D01*
X16373811Y29521769D01*
X16349713Y29488881D01*
X16324524Y29454482D01*
X16298401Y29418789D01*
X16277604Y29390356D01*
X16250849Y29353786D01*
X16224889Y29318333D01*
X16199885Y29284214D01*
X16175996Y29251645D01*
X16153382Y29220844D01*
X16132203Y29192027D01*
X16112617Y29165411D01*
X16094787Y29141213D01*
X16078870Y29119650D01*
X16065026Y29100939D01*
X16053417Y29085296D01*
X16044200Y29072939D01*
X16037537Y29064084D01*
X16033586Y29058949D01*
X16032494Y29057665D01*
X16029498Y29057471D01*
X16021949Y29057320D01*
X16010374Y29057211D01*
X15995299Y29057147D01*
X15977251Y29057130D01*
X15956757Y29057161D01*
X15934343Y29057241D01*
X15917572Y29057328D01*
X15805191Y29057990D01*
X16411149Y29886030D01*
X16453641Y29944093D01*
X16495381Y30001122D01*
X16536267Y30056981D01*
X16576200Y30111531D01*
X16615078Y30164637D01*
X16652802Y30216161D01*
X16689271Y30265964D01*
X16724383Y30313911D01*
X16758039Y30359864D01*
X16790138Y30403686D01*
X16820579Y30445239D01*
X16849262Y30484386D01*
X16876086Y30520989D01*
X16900951Y30554913D01*
X16923756Y30586019D01*
X16944401Y30614169D01*
X16962784Y30639228D01*
X16978806Y30661057D01*
X16992365Y30679519D01*
X17003361Y30694478D01*
X17011695Y30705795D01*
X17017264Y30713333D01*
X17019969Y30716956D01*
X17020218Y30717272D01*
X17022053Y30718064D01*
X17026117Y30718708D01*
X17032784Y30719211D01*
X17042428Y30719582D01*
X17055421Y30719829D01*
X17072136Y30719961D01*
X17092948Y30719984D01*
X17118228Y30719908D01*
G36*
X11174744Y30512140D02*
G01*
X10300984Y30512140D01*
X10300984Y30199720D01*
X10077464Y30199720D01*
X10077464Y30733120D01*
X11174744Y30733120D01*
X11174744Y30512140D01*
G37*
X11174744Y30512140D02*
X10300984Y30512140D01*
X10300984Y30199720D01*
X10077464Y30199720D01*
X10077464Y30733120D01*
X11174744Y30733120D01*
X11174744Y30512140D01*
G36*
X14692644Y30504520D02*
G01*
X13323584Y30504520D01*
X13323584Y30725500D01*
X14692644Y30725500D01*
X14692644Y30504520D01*
G37*
X14692644Y30504520D02*
X13323584Y30504520D01*
X13323584Y30725500D01*
X14692644Y30725500D01*
X14692644Y30504520D01*
G36*
X11060444Y29790780D02*
G01*
X10300984Y29790780D01*
X10300984Y29447880D01*
X10080004Y29447880D01*
X10080004Y30014300D01*
X11060444Y30014300D01*
X11060444Y29790780D01*
G37*
X11060444Y29790780D02*
X10300984Y29790780D01*
X10300984Y29447880D01*
X10080004Y29447880D01*
X10080004Y30014300D01*
X11060444Y30014300D01*
X11060444Y29790780D01*
G36*
X9630424Y29046560D02*
G01*
X8482344Y29046560D01*
X8482344Y29270080D01*
X9630424Y29270080D01*
X9630424Y29046560D01*
G37*
X9630424Y29046560D02*
X8482344Y29046560D01*
X8482344Y29270080D01*
X9630424Y29270080D01*
X9630424Y29046560D01*
G36*
X14113524Y29054180D02*
G01*
X13892544Y29054180D01*
X13892544Y30336880D01*
X14113524Y30336880D01*
X14113524Y29054180D01*
G37*
X14113524Y29054180D02*
X13892544Y29054180D01*
X13892544Y30336880D01*
X14113524Y30336880D01*
X14113524Y29054180D01*
G04 #@! TD*
D11*
G04 #@! TO.C,C2*
X28787500Y14300000D03*
X27212500Y14300000D03*
G04 #@! TD*
D12*
G04 #@! TO.C,C3*
X52000000Y9700000D03*
X52000000Y5300000D03*
G04 #@! TD*
D11*
G04 #@! TO.C,C4*
X36175000Y17000000D03*
X34600000Y17000000D03*
G04 #@! TD*
D13*
G04 #@! TO.C,D2*
X37900000Y27750000D03*
X37900000Y29850000D03*
G04 #@! TD*
D14*
G04 #@! TO.C,D3*
X18400000Y27100000D03*
X18400000Y20300000D03*
G04 #@! TD*
G04 #@! TO.C,D4*
X18400000Y17200000D03*
X18400000Y10400000D03*
G04 #@! TD*
D15*
G04 #@! TO.C,D5*
X11500000Y20300000D03*
X11500000Y27100000D03*
G04 #@! TD*
D16*
G04 #@! TO.C,D6*
X33000000Y10000000D03*
X33000000Y6000000D03*
G04 #@! TD*
D17*
G04 #@! TO.C,D7*
X54600000Y15812500D03*
X54600000Y17387500D03*
G04 #@! TD*
D15*
G04 #@! TO.C,D8*
X11500000Y10400000D03*
X11500000Y17200000D03*
G04 #@! TD*
D18*
G04 #@! TO.C,J1*
X59400000Y27100000D03*
D19*
X54320000Y27100000D03*
G04 #@! TD*
D20*
G04 #@! TO.C,J2*
X3350000Y28100000D03*
D19*
X3350000Y23020000D03*
G04 #@! TD*
D20*
G04 #@! TO.C,J3*
X3350000Y10500000D03*
D19*
X3350000Y5420000D03*
G04 #@! TD*
D18*
G04 #@! TO.C,J5*
X76200000Y27100000D03*
D19*
X71120000Y27100000D03*
X66040000Y27100000D03*
G04 #@! TD*
D21*
G04 #@! TO.C,J6*
X66000000Y6900000D03*
D19*
X71080000Y6900000D03*
X76160000Y6900000D03*
G04 #@! TD*
D11*
G04 #@! TO.C,R2*
X36175000Y18500000D03*
X34600000Y18500000D03*
G04 #@! TD*
D17*
G04 #@! TO.C,R3*
X33000000Y18700000D03*
X33000000Y20275000D03*
G04 #@! TD*
D22*
G04 #@! TO.C,R5*
X38012500Y18250000D03*
X39587500Y18250000D03*
G04 #@! TD*
D11*
G04 #@! TO.C,R6*
X50787500Y24250000D03*
X49212500Y24250000D03*
G04 #@! TD*
G04 #@! TO.C,R7*
X56687500Y12000000D03*
X55112500Y12000000D03*
G04 #@! TD*
D23*
G04 #@! TO.C,U2*
X24485000Y25570000D03*
X24485000Y23030000D03*
X34015000Y23030000D03*
X34015000Y25570000D03*
G04 #@! TD*
D24*
G04 #@! TO.C,U3*
X30537500Y16195000D03*
X30537500Y17465000D03*
X30537500Y18735000D03*
X30537500Y20005000D03*
X25462500Y20005000D03*
X25462500Y18735000D03*
X25462500Y17465000D03*
X25462500Y16195000D03*
G04 #@! TD*
D25*
G04 #@! TO.C,K1*
X59400000Y20820000D03*
X67020000Y20820000D03*
X72100000Y20820000D03*
X77180000Y20820000D03*
X77180000Y13200000D03*
X72100000Y13200000D03*
X67020000Y13200000D03*
D26*
X59400000Y13200000D03*
G04 #@! TD*
D22*
G04 #@! TO.C,R1*
X22812500Y28000000D03*
X24387500Y28000000D03*
G04 #@! TD*
D27*
G04 #@! TO.C,H1*
X3350000Y16700000D03*
G04 #@! TD*
G04 #@! TO.C,H2*
X59200000Y6900000D03*
G04 #@! TD*
G04 #@! TO.C,H3*
X46000000Y27500000D03*
G04 #@! TD*
D22*
G04 #@! TO.C,C6*
X48712500Y13500000D03*
X50287500Y13500000D03*
G04 #@! TD*
D28*
G04 #@! TO.C,C7*
X50500000Y18000000D03*
X50500000Y15300000D03*
G04 #@! TD*
G04 #@! TO.C,C8*
X52750000Y21600000D03*
X52750000Y18900000D03*
G04 #@! TD*
D29*
G04 #@! TO.C,R4*
X50500000Y21500000D03*
X50500000Y19925000D03*
G04 #@! TD*
D30*
G04 #@! TO.C,U1*
X43275000Y20655000D03*
X43275000Y19385000D03*
X43275000Y18115000D03*
X43275000Y16845000D03*
X48225000Y16845000D03*
X48225000Y18115000D03*
X48225000Y19385000D03*
X48225000Y20655000D03*
G04 #@! TD*
D11*
G04 #@! TO.C,C5*
X48325000Y22250000D03*
X46750000Y22250000D03*
G04 #@! TD*
D31*
G04 #@! TO.C,L1*
X46450000Y9500000D03*
X36550000Y9500000D03*
G04 #@! TD*
D13*
G04 #@! TO.C,D9*
X35500000Y27750000D03*
X35500000Y29850000D03*
G04 #@! TD*
D32*
G04 #@! TO.C,D1*
X18075000Y4630000D03*
X18075000Y7170000D03*
X11925000Y7170000D03*
X11925000Y4630000D03*
G04 #@! TD*
D33*
G04 #@! TO.C,RV1*
X38750000Y25540000D03*
D34*
X41290000Y23000000D03*
X38750000Y20460000D03*
G04 #@! TD*
D35*
G04 #@! TO.C,C1*
X27600000Y6100000D03*
X27600000Y10500000D03*
G04 #@! TD*
D36*
G04 #@! TO.C,Q1*
X54800000Y19750000D03*
X56700000Y19750000D03*
X55750000Y21750000D03*
G04 #@! TD*
D37*
G04 #@! TO.C,D10*
X56500000Y17650000D03*
X56500000Y15550000D03*
G04 #@! TD*
D38*
G04 #@! TO.C,C9*
X41200000Y18475000D03*
X41200000Y16925000D03*
G04 #@! TD*
M02*
